<?xml version="1.0" encoding="utf-8" standalone="no"?>
<!DOCTYPE svg PUBLIC "-//W3C//DTD SVG 1.1//EN"
  "http://www.w3.org/Graphics/SVG/1.1/DTD/svg11.dtd">
<!-- Created with matplotlib (https://matplotlib.org/) -->
<svg height="432pt" version="1.1" viewBox="0 0 576 432" width="576pt" xmlns="http://www.w3.org/2000/svg" xmlns:xlink="http://www.w3.org/1999/xlink">
 <defs>
  <style type="text/css">
*{stroke-linecap:butt;stroke-linejoin:round;}
  </style>
 </defs>
 <g id="figure_1">
  <g id="patch_1">
   <path d="M 0 432 
L 576 432 
L 576 0 
L 0 0 
z
" style="fill:#ffffff;"/>
  </g>
  <g id="axes_1">
   <g id="patch_2">
    <path d="M 72 384.48 
L 518.4 384.48 
L 518.4 51.84 
L 72 51.84 
z
" style="fill:#ffffff;"/>
   </g>
   <g id="matplotlib.axis_1">
    <g id="xtick_1">
     <g id="line2d_1">
      <defs>
       <path d="M 0 0 
L 0 3.5 
" id="mbb4d28fef7" style="stroke:#000000;stroke-width:0.8;"/>
      </defs>
      <g>
       <use style="stroke:#000000;stroke-width:0.8;" x="72" xlink:href="#mbb4d28fef7" y="384.48"/>
      </g>
     </g>
     <g id="text_1">
      <!-- 3 (mM) -->
      <defs>
       <path d="M 40.578125 39.3125 
Q 47.65625 37.796875 51.625 33 
Q 55.609375 28.21875 55.609375 21.1875 
Q 55.609375 10.40625 48.1875 4.484375 
Q 40.765625 -1.421875 27.09375 -1.421875 
Q 22.515625 -1.421875 17.65625 -0.515625 
Q 12.796875 0.390625 7.625 2.203125 
L 7.625 11.71875 
Q 11.71875 9.328125 16.59375 8.109375 
Q 21.484375 6.890625 26.8125 6.890625 
Q 36.078125 6.890625 40.9375 10.546875 
Q 45.796875 14.203125 45.796875 21.1875 
Q 45.796875 27.640625 41.28125 31.265625 
Q 36.765625 34.90625 28.71875 34.90625 
L 20.21875 34.90625 
L 20.21875 43.015625 
L 29.109375 43.015625 
Q 36.375 43.015625 40.234375 45.921875 
Q 44.09375 48.828125 44.09375 54.296875 
Q 44.09375 59.90625 40.109375 62.90625 
Q 36.140625 65.921875 28.71875 65.921875 
Q 24.65625 65.921875 20.015625 65.03125 
Q 15.375 64.15625 9.8125 62.3125 
L 9.8125 71.09375 
Q 15.4375 72.65625 20.34375 73.4375 
Q 25.25 74.21875 29.59375 74.21875 
Q 40.828125 74.21875 47.359375 69.109375 
Q 53.90625 64.015625 53.90625 55.328125 
Q 53.90625 49.265625 50.4375 45.09375 
Q 46.96875 40.921875 40.578125 39.3125 
z
" id="DejaVuSans-51"/>
       <path id="DejaVuSans-32"/>
       <path d="M 31 75.875 
Q 24.46875 64.65625 21.28125 53.65625 
Q 18.109375 42.671875 18.109375 31.390625 
Q 18.109375 20.125 21.3125 9.0625 
Q 24.515625 -2 31 -13.1875 
L 23.1875 -13.1875 
Q 15.875 -1.703125 12.234375 9.375 
Q 8.59375 20.453125 8.59375 31.390625 
Q 8.59375 42.28125 12.203125 53.3125 
Q 15.828125 64.359375 23.1875 75.875 
z
" id="DejaVuSans-40"/>
       <path d="M 52 44.1875 
Q 55.375 50.25 60.0625 53.125 
Q 64.75 56 71.09375 56 
Q 79.640625 56 84.28125 50.015625 
Q 88.921875 44.046875 88.921875 33.015625 
L 88.921875 0 
L 79.890625 0 
L 79.890625 32.71875 
Q 79.890625 40.578125 77.09375 44.375 
Q 74.3125 48.1875 68.609375 48.1875 
Q 61.625 48.1875 57.5625 43.546875 
Q 53.515625 38.921875 53.515625 30.90625 
L 53.515625 0 
L 44.484375 0 
L 44.484375 32.71875 
Q 44.484375 40.625 41.703125 44.40625 
Q 38.921875 48.1875 33.109375 48.1875 
Q 26.21875 48.1875 22.15625 43.53125 
Q 18.109375 38.875 18.109375 30.90625 
L 18.109375 0 
L 9.078125 0 
L 9.078125 54.6875 
L 18.109375 54.6875 
L 18.109375 46.1875 
Q 21.1875 51.21875 25.484375 53.609375 
Q 29.78125 56 35.6875 56 
Q 41.65625 56 45.828125 52.96875 
Q 50 49.953125 52 44.1875 
z
" id="DejaVuSans-109"/>
       <path d="M 9.8125 72.90625 
L 24.515625 72.90625 
L 43.109375 23.296875 
L 61.8125 72.90625 
L 76.515625 72.90625 
L 76.515625 0 
L 66.890625 0 
L 66.890625 64.015625 
L 48.09375 14.015625 
L 38.1875 14.015625 
L 19.390625 64.015625 
L 19.390625 0 
L 9.8125 0 
z
" id="DejaVuSans-77"/>
       <path d="M 8.015625 75.875 
L 15.828125 75.875 
Q 23.140625 64.359375 26.78125 53.3125 
Q 30.421875 42.28125 30.421875 31.390625 
Q 30.421875 20.453125 26.78125 9.375 
Q 23.140625 -1.703125 15.828125 -13.1875 
L 8.015625 -13.1875 
Q 14.5 -2 17.703125 9.0625 
Q 20.90625 20.125 20.90625 31.390625 
Q 20.90625 42.671875 17.703125 53.65625 
Q 14.5 64.65625 8.015625 75.875 
z
" id="DejaVuSans-41"/>
      </defs>
      <g transform="translate(54.14375 399.078438)scale(0.1 -0.1)">
       <use xlink:href="#DejaVuSans-51"/>
       <use x="63.623047" xlink:href="#DejaVuSans-32"/>
       <use x="95.410156" xlink:href="#DejaVuSans-40"/>
       <use x="134.423828" xlink:href="#DejaVuSans-109"/>
       <use x="231.835938" xlink:href="#DejaVuSans-77"/>
       <use x="318.115234" xlink:href="#DejaVuSans-41"/>
      </g>
     </g>
    </g>
    <g id="xtick_2">
     <g id="line2d_2">
      <g>
       <use style="stroke:#000000;stroke-width:0.8;" x="121.6" xlink:href="#mbb4d28fef7" y="384.48"/>
      </g>
     </g>
     <g id="text_2">
      <!-- 4 -->
      <defs>
       <path d="M 37.796875 64.3125 
L 12.890625 25.390625 
L 37.796875 25.390625 
z
M 35.203125 72.90625 
L 47.609375 72.90625 
L 47.609375 25.390625 
L 58.015625 25.390625 
L 58.015625 17.1875 
L 47.609375 17.1875 
L 47.609375 0 
L 37.796875 0 
L 37.796875 17.1875 
L 4.890625 17.1875 
L 4.890625 26.703125 
z
" id="DejaVuSans-52"/>
      </defs>
      <g transform="translate(118.41875 399.078438)scale(0.1 -0.1)">
       <use xlink:href="#DejaVuSans-52"/>
      </g>
     </g>
    </g>
    <g id="xtick_3">
     <g id="line2d_3">
      <g>
       <use style="stroke:#000000;stroke-width:0.8;" x="171.2" xlink:href="#mbb4d28fef7" y="384.48"/>
      </g>
     </g>
     <g id="text_3">
      <!-- 5 -->
      <defs>
       <path d="M 10.796875 72.90625 
L 49.515625 72.90625 
L 49.515625 64.59375 
L 19.828125 64.59375 
L 19.828125 46.734375 
Q 21.96875 47.46875 24.109375 47.828125 
Q 26.265625 48.1875 28.421875 48.1875 
Q 40.625 48.1875 47.75 41.5 
Q 54.890625 34.8125 54.890625 23.390625 
Q 54.890625 11.625 47.5625 5.09375 
Q 40.234375 -1.421875 26.90625 -1.421875 
Q 22.3125 -1.421875 17.546875 -0.640625 
Q 12.796875 0.140625 7.71875 1.703125 
L 7.71875 11.625 
Q 12.109375 9.234375 16.796875 8.0625 
Q 21.484375 6.890625 26.703125 6.890625 
Q 35.15625 6.890625 40.078125 11.328125 
Q 45.015625 15.765625 45.015625 23.390625 
Q 45.015625 31 40.078125 35.4375 
Q 35.15625 39.890625 26.703125 39.890625 
Q 22.75 39.890625 18.8125 39.015625 
Q 14.890625 38.140625 10.796875 36.28125 
z
" id="DejaVuSans-53"/>
      </defs>
      <g transform="translate(168.01875 399.078438)scale(0.1 -0.1)">
       <use xlink:href="#DejaVuSans-53"/>
      </g>
     </g>
    </g>
    <g id="xtick_4">
     <g id="line2d_4">
      <g>
       <use style="stroke:#000000;stroke-width:0.8;" x="220.8" xlink:href="#mbb4d28fef7" y="384.48"/>
      </g>
     </g>
     <g id="text_4">
      <!-- 6 ($\mathrm{\mu}$M) -->
      <defs>
       <path d="M 33.015625 40.375 
Q 26.375 40.375 22.484375 35.828125 
Q 18.609375 31.296875 18.609375 23.390625 
Q 18.609375 15.53125 22.484375 10.953125 
Q 26.375 6.390625 33.015625 6.390625 
Q 39.65625 6.390625 43.53125 10.953125 
Q 47.40625 15.53125 47.40625 23.390625 
Q 47.40625 31.296875 43.53125 35.828125 
Q 39.65625 40.375 33.015625 40.375 
z
M 52.59375 71.296875 
L 52.59375 62.3125 
Q 48.875 64.0625 45.09375 64.984375 
Q 41.3125 65.921875 37.59375 65.921875 
Q 27.828125 65.921875 22.671875 59.328125 
Q 17.53125 52.734375 16.796875 39.40625 
Q 19.671875 43.65625 24.015625 45.921875 
Q 28.375 48.1875 33.59375 48.1875 
Q 44.578125 48.1875 50.953125 41.515625 
Q 57.328125 34.859375 57.328125 23.390625 
Q 57.328125 12.15625 50.6875 5.359375 
Q 44.046875 -1.421875 33.015625 -1.421875 
Q 20.359375 -1.421875 13.671875 8.265625 
Q 6.984375 17.96875 6.984375 36.375 
Q 6.984375 53.65625 15.1875 63.9375 
Q 23.390625 74.21875 37.203125 74.21875 
Q 40.921875 74.21875 44.703125 73.484375 
Q 48.484375 72.75 52.59375 71.296875 
z
" id="DejaVuSans-54"/>
       <path d="M 8.5 -20.796875 
L 8.5 54.6875 
L 17.484375 54.6875 
L 17.484375 20.703125 
Q 17.484375 13.625 20.84375 10 
Q 24.21875 6.390625 30.8125 6.390625 
Q 38.03125 6.390625 41.671875 10.484375 
Q 45.3125 14.59375 45.3125 22.796875 
L 45.3125 54.6875 
L 54.296875 54.6875 
L 54.296875 12.59375 
Q 54.296875 9.671875 55.140625 8.28125 
Q 56 6.890625 57.8125 6.890625 
Q 58.25 6.890625 59.03125 7.15625 
Q 59.8125 7.421875 61.1875 8.015625 
L 61.1875 0.78125 
Q 59.1875 -0.34375 57.390625 -0.875 
Q 55.609375 -1.421875 53.90625 -1.421875 
Q 50.53125 -1.421875 48.53125 0.484375 
Q 46.53125 2.390625 45.796875 6.296875 
Q 43.359375 2.4375 39.8125 0.5 
Q 36.28125 -1.421875 31.5 -1.421875 
Q 26.515625 -1.421875 23.015625 0.484375 
Q 19.53125 2.390625 17.484375 6.203125 
L 17.484375 -20.796875 
z
" id="DejaVuSans-956"/>
      </defs>
      <g transform="translate(204.6 399.08)scale(0.1 -0.1)">
       <use transform="translate(0 0.125)" xlink:href="#DejaVuSans-54"/>
       <use transform="translate(63.623047 0.125)" xlink:href="#DejaVuSans-32"/>
       <use transform="translate(95.410156 0.125)" xlink:href="#DejaVuSans-40"/>
       <use transform="translate(134.423828 0.125)" xlink:href="#DejaVuSans-956"/>
       <use transform="translate(198.046875 0.125)" xlink:href="#DejaVuSans-77"/>
       <use transform="translate(284.326172 0.125)" xlink:href="#DejaVuSans-41"/>
      </g>
     </g>
    </g>
    <g id="xtick_5">
     <g id="line2d_5">
      <g>
       <use style="stroke:#000000;stroke-width:0.8;" x="270.4" xlink:href="#mbb4d28fef7" y="384.48"/>
      </g>
     </g>
     <g id="text_5">
      <!-- 7 -->
      <defs>
       <path d="M 8.203125 72.90625 
L 55.078125 72.90625 
L 55.078125 68.703125 
L 28.609375 0 
L 18.3125 0 
L 43.21875 64.59375 
L 8.203125 64.59375 
z
" id="DejaVuSans-55"/>
      </defs>
      <g transform="translate(267.21875 399.078438)scale(0.1 -0.1)">
       <use xlink:href="#DejaVuSans-55"/>
      </g>
     </g>
    </g>
    <g id="xtick_6">
     <g id="line2d_6">
      <g>
       <use style="stroke:#000000;stroke-width:0.8;" x="320" xlink:href="#mbb4d28fef7" y="384.48"/>
      </g>
     </g>
     <g id="text_6">
      <!-- 8 -->
      <defs>
       <path d="M 31.78125 34.625 
Q 24.75 34.625 20.71875 30.859375 
Q 16.703125 27.09375 16.703125 20.515625 
Q 16.703125 13.921875 20.71875 10.15625 
Q 24.75 6.390625 31.78125 6.390625 
Q 38.8125 6.390625 42.859375 10.171875 
Q 46.921875 13.96875 46.921875 20.515625 
Q 46.921875 27.09375 42.890625 30.859375 
Q 38.875 34.625 31.78125 34.625 
z
M 21.921875 38.8125 
Q 15.578125 40.375 12.03125 44.71875 
Q 8.5 49.078125 8.5 55.328125 
Q 8.5 64.0625 14.71875 69.140625 
Q 20.953125 74.21875 31.78125 74.21875 
Q 42.671875 74.21875 48.875 69.140625 
Q 55.078125 64.0625 55.078125 55.328125 
Q 55.078125 49.078125 51.53125 44.71875 
Q 48 40.375 41.703125 38.8125 
Q 48.828125 37.15625 52.796875 32.3125 
Q 56.78125 27.484375 56.78125 20.515625 
Q 56.78125 9.90625 50.3125 4.234375 
Q 43.84375 -1.421875 31.78125 -1.421875 
Q 19.734375 -1.421875 13.25 4.234375 
Q 6.78125 9.90625 6.78125 20.515625 
Q 6.78125 27.484375 10.78125 32.3125 
Q 14.796875 37.15625 21.921875 38.8125 
z
M 18.3125 54.390625 
Q 18.3125 48.734375 21.84375 45.5625 
Q 25.390625 42.390625 31.78125 42.390625 
Q 38.140625 42.390625 41.71875 45.5625 
Q 45.3125 48.734375 45.3125 54.390625 
Q 45.3125 60.0625 41.71875 63.234375 
Q 38.140625 66.40625 31.78125 66.40625 
Q 25.390625 66.40625 21.84375 63.234375 
Q 18.3125 60.0625 18.3125 54.390625 
z
" id="DejaVuSans-56"/>
      </defs>
      <g transform="translate(316.81875 399.078438)scale(0.1 -0.1)">
       <use xlink:href="#DejaVuSans-56"/>
      </g>
     </g>
    </g>
    <g id="xtick_7">
     <g id="line2d_7">
      <g>
       <use style="stroke:#000000;stroke-width:0.8;" x="369.6" xlink:href="#mbb4d28fef7" y="384.48"/>
      </g>
     </g>
     <g id="text_7">
      <!-- 9 (nM) -->
      <defs>
       <path d="M 10.984375 1.515625 
L 10.984375 10.5 
Q 14.703125 8.734375 18.5 7.8125 
Q 22.3125 6.890625 25.984375 6.890625 
Q 35.75 6.890625 40.890625 13.453125 
Q 46.046875 20.015625 46.78125 33.40625 
Q 43.953125 29.203125 39.59375 26.953125 
Q 35.25 24.703125 29.984375 24.703125 
Q 19.046875 24.703125 12.671875 31.3125 
Q 6.296875 37.9375 6.296875 49.421875 
Q 6.296875 60.640625 12.9375 67.421875 
Q 19.578125 74.21875 30.609375 74.21875 
Q 43.265625 74.21875 49.921875 64.515625 
Q 56.59375 54.828125 56.59375 36.375 
Q 56.59375 19.140625 48.40625 8.859375 
Q 40.234375 -1.421875 26.421875 -1.421875 
Q 22.703125 -1.421875 18.890625 -0.6875 
Q 15.09375 0.046875 10.984375 1.515625 
z
M 30.609375 32.421875 
Q 37.25 32.421875 41.125 36.953125 
Q 45.015625 41.5 45.015625 49.421875 
Q 45.015625 57.28125 41.125 61.84375 
Q 37.25 66.40625 30.609375 66.40625 
Q 23.96875 66.40625 20.09375 61.84375 
Q 16.21875 57.28125 16.21875 49.421875 
Q 16.21875 41.5 20.09375 36.953125 
Q 23.96875 32.421875 30.609375 32.421875 
z
" id="DejaVuSans-57"/>
       <path d="M 54.890625 33.015625 
L 54.890625 0 
L 45.90625 0 
L 45.90625 32.71875 
Q 45.90625 40.484375 42.875 44.328125 
Q 39.84375 48.1875 33.796875 48.1875 
Q 26.515625 48.1875 22.3125 43.546875 
Q 18.109375 38.921875 18.109375 30.90625 
L 18.109375 0 
L 9.078125 0 
L 9.078125 54.6875 
L 18.109375 54.6875 
L 18.109375 46.1875 
Q 21.34375 51.125 25.703125 53.5625 
Q 30.078125 56 35.796875 56 
Q 45.21875 56 50.046875 50.171875 
Q 54.890625 44.34375 54.890625 33.015625 
z
" id="DejaVuSans-110"/>
      </defs>
      <g transform="translate(353.445312 399.078438)scale(0.1 -0.1)">
       <use xlink:href="#DejaVuSans-57"/>
       <use x="63.623047" xlink:href="#DejaVuSans-32"/>
       <use x="95.410156" xlink:href="#DejaVuSans-40"/>
       <use x="134.423828" xlink:href="#DejaVuSans-110"/>
       <use x="197.802734" xlink:href="#DejaVuSans-77"/>
       <use x="284.082031" xlink:href="#DejaVuSans-41"/>
      </g>
     </g>
    </g>
    <g id="xtick_8">
     <g id="line2d_8">
      <g>
       <use style="stroke:#000000;stroke-width:0.8;" x="419.2" xlink:href="#mbb4d28fef7" y="384.48"/>
      </g>
     </g>
     <g id="text_8">
      <!-- 10 -->
      <defs>
       <path d="M 12.40625 8.296875 
L 28.515625 8.296875 
L 28.515625 63.921875 
L 10.984375 60.40625 
L 10.984375 69.390625 
L 28.421875 72.90625 
L 38.28125 72.90625 
L 38.28125 8.296875 
L 54.390625 8.296875 
L 54.390625 0 
L 12.40625 0 
z
" id="DejaVuSans-49"/>
       <path d="M 31.78125 66.40625 
Q 24.171875 66.40625 20.328125 58.90625 
Q 16.5 51.421875 16.5 36.375 
Q 16.5 21.390625 20.328125 13.890625 
Q 24.171875 6.390625 31.78125 6.390625 
Q 39.453125 6.390625 43.28125 13.890625 
Q 47.125 21.390625 47.125 36.375 
Q 47.125 51.421875 43.28125 58.90625 
Q 39.453125 66.40625 31.78125 66.40625 
z
M 31.78125 74.21875 
Q 44.046875 74.21875 50.515625 64.515625 
Q 56.984375 54.828125 56.984375 36.375 
Q 56.984375 17.96875 50.515625 8.265625 
Q 44.046875 -1.421875 31.78125 -1.421875 
Q 19.53125 -1.421875 13.0625 8.265625 
Q 6.59375 17.96875 6.59375 36.375 
Q 6.59375 54.828125 13.0625 64.515625 
Q 19.53125 74.21875 31.78125 74.21875 
z
" id="DejaVuSans-48"/>
      </defs>
      <g transform="translate(412.8375 399.078438)scale(0.1 -0.1)">
       <use xlink:href="#DejaVuSans-49"/>
       <use x="63.623047" xlink:href="#DejaVuSans-48"/>
      </g>
     </g>
    </g>
    <g id="xtick_9">
     <g id="line2d_9">
      <g>
       <use style="stroke:#000000;stroke-width:0.8;" x="468.8" xlink:href="#mbb4d28fef7" y="384.48"/>
      </g>
     </g>
     <g id="text_9">
      <!-- 11 -->
      <g transform="translate(462.4375 399.078438)scale(0.1 -0.1)">
       <use xlink:href="#DejaVuSans-49"/>
       <use x="63.623047" xlink:href="#DejaVuSans-49"/>
      </g>
     </g>
    </g>
    <g id="xtick_10">
     <g id="line2d_10">
      <g>
       <use style="stroke:#000000;stroke-width:0.8;" x="518.4" xlink:href="#mbb4d28fef7" y="384.48"/>
      </g>
     </g>
     <g id="text_10">
      <!-- 12 (pM) -->
      <defs>
       <path d="M 19.1875 8.296875 
L 53.609375 8.296875 
L 53.609375 0 
L 7.328125 0 
L 7.328125 8.296875 
Q 12.9375 14.109375 22.625 23.890625 
Q 32.328125 33.6875 34.8125 36.53125 
Q 39.546875 41.84375 41.421875 45.53125 
Q 43.3125 49.21875 43.3125 52.78125 
Q 43.3125 58.59375 39.234375 62.25 
Q 35.15625 65.921875 28.609375 65.921875 
Q 23.96875 65.921875 18.8125 64.3125 
Q 13.671875 62.703125 7.8125 59.421875 
L 7.8125 69.390625 
Q 13.765625 71.78125 18.9375 73 
Q 24.125 74.21875 28.421875 74.21875 
Q 39.75 74.21875 46.484375 68.546875 
Q 53.21875 62.890625 53.21875 53.421875 
Q 53.21875 48.921875 51.53125 44.890625 
Q 49.859375 40.875 45.40625 35.40625 
Q 44.1875 33.984375 37.640625 27.21875 
Q 31.109375 20.453125 19.1875 8.296875 
z
" id="DejaVuSans-50"/>
       <path d="M 18.109375 8.203125 
L 18.109375 -20.796875 
L 9.078125 -20.796875 
L 9.078125 54.6875 
L 18.109375 54.6875 
L 18.109375 46.390625 
Q 20.953125 51.265625 25.265625 53.625 
Q 29.59375 56 35.59375 56 
Q 45.5625 56 51.78125 48.09375 
Q 58.015625 40.1875 58.015625 27.296875 
Q 58.015625 14.40625 51.78125 6.484375 
Q 45.5625 -1.421875 35.59375 -1.421875 
Q 29.59375 -1.421875 25.265625 0.953125 
Q 20.953125 3.328125 18.109375 8.203125 
z
M 48.6875 27.296875 
Q 48.6875 37.203125 44.609375 42.84375 
Q 40.53125 48.484375 33.40625 48.484375 
Q 26.265625 48.484375 22.1875 42.84375 
Q 18.109375 37.203125 18.109375 27.296875 
Q 18.109375 17.390625 22.1875 11.75 
Q 26.265625 6.109375 33.40625 6.109375 
Q 40.53125 6.109375 44.609375 11.75 
Q 48.6875 17.390625 48.6875 27.296875 
z
" id="DejaVuSans-112"/>
      </defs>
      <g transform="translate(499.058594 399.078438)scale(0.1 -0.1)">
       <use xlink:href="#DejaVuSans-49"/>
       <use x="63.623047" xlink:href="#DejaVuSans-50"/>
       <use x="127.246094" xlink:href="#DejaVuSans-32"/>
       <use x="159.033203" xlink:href="#DejaVuSans-40"/>
       <use x="198.046875" xlink:href="#DejaVuSans-112"/>
       <use x="261.523438" xlink:href="#DejaVuSans-77"/>
       <use x="347.802734" xlink:href="#DejaVuSans-41"/>
      </g>
     </g>
    </g>
    <g id="text_11">
     <!-- Ligand pK$_\mathrm{D}$ -->
     <defs>
      <path d="M 9.8125 72.90625 
L 19.671875 72.90625 
L 19.671875 8.296875 
L 55.171875 8.296875 
L 55.171875 0 
L 9.8125 0 
z
" id="DejaVuSans-76"/>
      <path d="M 9.421875 54.6875 
L 18.40625 54.6875 
L 18.40625 0 
L 9.421875 0 
z
M 9.421875 75.984375 
L 18.40625 75.984375 
L 18.40625 64.59375 
L 9.421875 64.59375 
z
" id="DejaVuSans-105"/>
      <path d="M 45.40625 27.984375 
Q 45.40625 37.75 41.375 43.109375 
Q 37.359375 48.484375 30.078125 48.484375 
Q 22.859375 48.484375 18.828125 43.109375 
Q 14.796875 37.75 14.796875 27.984375 
Q 14.796875 18.265625 18.828125 12.890625 
Q 22.859375 7.515625 30.078125 7.515625 
Q 37.359375 7.515625 41.375 12.890625 
Q 45.40625 18.265625 45.40625 27.984375 
z
M 54.390625 6.78125 
Q 54.390625 -7.171875 48.1875 -13.984375 
Q 42 -20.796875 29.203125 -20.796875 
Q 24.46875 -20.796875 20.265625 -20.09375 
Q 16.0625 -19.390625 12.109375 -17.921875 
L 12.109375 -9.1875 
Q 16.0625 -11.328125 19.921875 -12.34375 
Q 23.78125 -13.375 27.78125 -13.375 
Q 36.625 -13.375 41.015625 -8.765625 
Q 45.40625 -4.15625 45.40625 5.171875 
L 45.40625 9.625 
Q 42.625 4.78125 38.28125 2.390625 
Q 33.9375 0 27.875 0 
Q 17.828125 0 11.671875 7.65625 
Q 5.515625 15.328125 5.515625 27.984375 
Q 5.515625 40.671875 11.671875 48.328125 
Q 17.828125 56 27.875 56 
Q 33.9375 56 38.28125 53.609375 
Q 42.625 51.21875 45.40625 46.390625 
L 45.40625 54.6875 
L 54.390625 54.6875 
z
" id="DejaVuSans-103"/>
      <path d="M 34.28125 27.484375 
Q 23.390625 27.484375 19.1875 25 
Q 14.984375 22.515625 14.984375 16.5 
Q 14.984375 11.71875 18.140625 8.90625 
Q 21.296875 6.109375 26.703125 6.109375 
Q 34.1875 6.109375 38.703125 11.40625 
Q 43.21875 16.703125 43.21875 25.484375 
L 43.21875 27.484375 
z
M 52.203125 31.203125 
L 52.203125 0 
L 43.21875 0 
L 43.21875 8.296875 
Q 40.140625 3.328125 35.546875 0.953125 
Q 30.953125 -1.421875 24.3125 -1.421875 
Q 15.921875 -1.421875 10.953125 3.296875 
Q 6 8.015625 6 15.921875 
Q 6 25.140625 12.171875 29.828125 
Q 18.359375 34.515625 30.609375 34.515625 
L 43.21875 34.515625 
L 43.21875 35.40625 
Q 43.21875 41.609375 39.140625 45 
Q 35.0625 48.390625 27.6875 48.390625 
Q 23 48.390625 18.546875 47.265625 
Q 14.109375 46.140625 10.015625 43.890625 
L 10.015625 52.203125 
Q 14.9375 54.109375 19.578125 55.046875 
Q 24.21875 56 28.609375 56 
Q 40.484375 56 46.34375 49.84375 
Q 52.203125 43.703125 52.203125 31.203125 
z
" id="DejaVuSans-97"/>
      <path d="M 45.40625 46.390625 
L 45.40625 75.984375 
L 54.390625 75.984375 
L 54.390625 0 
L 45.40625 0 
L 45.40625 8.203125 
Q 42.578125 3.328125 38.25 0.953125 
Q 33.9375 -1.421875 27.875 -1.421875 
Q 17.96875 -1.421875 11.734375 6.484375 
Q 5.515625 14.40625 5.515625 27.296875 
Q 5.515625 40.1875 11.734375 48.09375 
Q 17.96875 56 27.875 56 
Q 33.9375 56 38.25 53.625 
Q 42.578125 51.265625 45.40625 46.390625 
z
M 14.796875 27.296875 
Q 14.796875 17.390625 18.875 11.75 
Q 22.953125 6.109375 30.078125 6.109375 
Q 37.203125 6.109375 41.296875 11.75 
Q 45.40625 17.390625 45.40625 27.296875 
Q 45.40625 37.203125 41.296875 42.84375 
Q 37.203125 48.484375 30.078125 48.484375 
Q 22.953125 48.484375 18.875 42.84375 
Q 14.796875 37.203125 14.796875 27.296875 
z
" id="DejaVuSans-100"/>
      <path d="M 9.8125 72.90625 
L 19.671875 72.90625 
L 19.671875 42.09375 
L 52.390625 72.90625 
L 65.09375 72.90625 
L 28.90625 38.921875 
L 67.671875 0 
L 54.6875 0 
L 19.671875 35.109375 
L 19.671875 0 
L 9.8125 0 
z
" id="DejaVuSans-75"/>
      <path d="M 19.671875 64.796875 
L 19.671875 8.109375 
L 31.59375 8.109375 
Q 46.6875 8.109375 53.6875 14.9375 
Q 60.6875 21.78125 60.6875 36.53125 
Q 60.6875 51.171875 53.6875 57.984375 
Q 46.6875 64.796875 31.59375 64.796875 
z
M 9.8125 72.90625 
L 30.078125 72.90625 
Q 51.265625 72.90625 61.171875 64.09375 
Q 71.09375 55.28125 71.09375 36.53125 
Q 71.09375 17.671875 61.125 8.828125 
Q 51.171875 0 30.078125 0 
L 9.8125 0 
z
" id="DejaVuSans-68"/>
     </defs>
     <g transform="translate(267.5 412.78)scale(0.1 -0.1)">
      <use transform="translate(0 0.015625)" xlink:href="#DejaVuSans-76"/>
      <use transform="translate(55.712891 0.015625)" xlink:href="#DejaVuSans-105"/>
      <use transform="translate(83.496094 0.015625)" xlink:href="#DejaVuSans-103"/>
      <use transform="translate(146.972656 0.015625)" xlink:href="#DejaVuSans-97"/>
      <use transform="translate(208.251953 0.015625)" xlink:href="#DejaVuSans-110"/>
      <use transform="translate(271.630859 0.015625)" xlink:href="#DejaVuSans-100"/>
      <use transform="translate(335.107422 0.015625)" xlink:href="#DejaVuSans-32"/>
      <use transform="translate(366.894531 0.015625)" xlink:href="#DejaVuSans-112"/>
      <use transform="translate(430.371094 0.015625)" xlink:href="#DejaVuSans-75"/>
      <use transform="translate(496.904297 -16.390625)scale(0.7)" xlink:href="#DejaVuSans-68"/>
     </g>
    </g>
   </g>
   <g id="matplotlib.axis_2">
    <g id="ytick_1">
     <g id="line2d_11">
      <defs>
       <path d="M 0 0 
L -3.5 0 
" id="m1446382548" style="stroke:#000000;stroke-width:0.8;"/>
      </defs>
      <g>
       <use style="stroke:#000000;stroke-width:0.8;" x="72" xlink:href="#m1446382548" y="384.48"/>
      </g>
     </g>
     <g id="text_12">
      <!-- 0.0 -->
      <defs>
       <path d="M 10.6875 12.40625 
L 21 12.40625 
L 21 0 
L 10.6875 0 
z
" id="DejaVuSans-46"/>
      </defs>
      <g transform="translate(49.096875 388.279219)scale(0.1 -0.1)">
       <use xlink:href="#DejaVuSans-48"/>
       <use x="63.623047" xlink:href="#DejaVuSans-46"/>
       <use x="95.410156" xlink:href="#DejaVuSans-48"/>
      </g>
     </g>
    </g>
    <g id="ytick_2">
     <g id="line2d_12">
      <g>
       <use style="stroke:#000000;stroke-width:0.8;" x="72" xlink:href="#m1446382548" y="341.28"/>
      </g>
     </g>
     <g id="text_13">
      <!-- 0.1 -->
      <g transform="translate(49.096875 345.079219)scale(0.1 -0.1)">
       <use xlink:href="#DejaVuSans-48"/>
       <use x="63.623047" xlink:href="#DejaVuSans-46"/>
       <use x="95.410156" xlink:href="#DejaVuSans-49"/>
      </g>
     </g>
    </g>
    <g id="ytick_3">
     <g id="line2d_13">
      <g>
       <use style="stroke:#000000;stroke-width:0.8;" x="72" xlink:href="#m1446382548" y="298.08"/>
      </g>
     </g>
     <g id="text_14">
      <!-- 0.2 -->
      <g transform="translate(49.096875 301.879219)scale(0.1 -0.1)">
       <use xlink:href="#DejaVuSans-48"/>
       <use x="63.623047" xlink:href="#DejaVuSans-46"/>
       <use x="95.410156" xlink:href="#DejaVuSans-50"/>
      </g>
     </g>
    </g>
    <g id="ytick_4">
     <g id="line2d_14">
      <g>
       <use style="stroke:#000000;stroke-width:0.8;" x="72" xlink:href="#m1446382548" y="254.88"/>
      </g>
     </g>
     <g id="text_15">
      <!-- 0.3 -->
      <g transform="translate(49.096875 258.679219)scale(0.1 -0.1)">
       <use xlink:href="#DejaVuSans-48"/>
       <use x="63.623047" xlink:href="#DejaVuSans-46"/>
       <use x="95.410156" xlink:href="#DejaVuSans-51"/>
      </g>
     </g>
    </g>
    <g id="ytick_5">
     <g id="line2d_15">
      <g>
       <use style="stroke:#000000;stroke-width:0.8;" x="72" xlink:href="#m1446382548" y="211.68"/>
      </g>
     </g>
     <g id="text_16">
      <!-- 0.4 -->
      <g transform="translate(49.096875 215.479219)scale(0.1 -0.1)">
       <use xlink:href="#DejaVuSans-48"/>
       <use x="63.623047" xlink:href="#DejaVuSans-46"/>
       <use x="95.410156" xlink:href="#DejaVuSans-52"/>
      </g>
     </g>
    </g>
    <g id="ytick_6">
     <g id="line2d_16">
      <g>
       <use style="stroke:#000000;stroke-width:0.8;" x="72" xlink:href="#m1446382548" y="168.48"/>
      </g>
     </g>
     <g id="text_17">
      <!-- 0.5 -->
      <g transform="translate(49.096875 172.279219)scale(0.1 -0.1)">
       <use xlink:href="#DejaVuSans-48"/>
       <use x="63.623047" xlink:href="#DejaVuSans-46"/>
       <use x="95.410156" xlink:href="#DejaVuSans-53"/>
      </g>
     </g>
    </g>
    <g id="ytick_7">
     <g id="line2d_17">
      <g>
       <use style="stroke:#000000;stroke-width:0.8;" x="72" xlink:href="#m1446382548" y="125.28"/>
      </g>
     </g>
     <g id="text_18">
      <!-- 0.6 -->
      <g transform="translate(49.096875 129.079219)scale(0.1 -0.1)">
       <use xlink:href="#DejaVuSans-48"/>
       <use x="63.623047" xlink:href="#DejaVuSans-46"/>
       <use x="95.410156" xlink:href="#DejaVuSans-54"/>
      </g>
     </g>
    </g>
    <g id="ytick_8">
     <g id="line2d_18">
      <g>
       <use style="stroke:#000000;stroke-width:0.8;" x="72" xlink:href="#m1446382548" y="82.08"/>
      </g>
     </g>
     <g id="text_19">
      <!-- 0.7 -->
      <g transform="translate(49.096875 85.879219)scale(0.1 -0.1)">
       <use xlink:href="#DejaVuSans-48"/>
       <use x="63.623047" xlink:href="#DejaVuSans-46"/>
       <use x="95.410156" xlink:href="#DejaVuSans-55"/>
      </g>
     </g>
    </g>
    <g id="text_20">
     <!-- Fraction ligand bound -->
     <defs>
      <path d="M 9.8125 72.90625 
L 51.703125 72.90625 
L 51.703125 64.59375 
L 19.671875 64.59375 
L 19.671875 43.109375 
L 48.578125 43.109375 
L 48.578125 34.8125 
L 19.671875 34.8125 
L 19.671875 0 
L 9.8125 0 
z
" id="DejaVuSans-70"/>
      <path d="M 41.109375 46.296875 
Q 39.59375 47.171875 37.8125 47.578125 
Q 36.03125 48 33.890625 48 
Q 26.265625 48 22.1875 43.046875 
Q 18.109375 38.09375 18.109375 28.8125 
L 18.109375 0 
L 9.078125 0 
L 9.078125 54.6875 
L 18.109375 54.6875 
L 18.109375 46.1875 
Q 20.953125 51.171875 25.484375 53.578125 
Q 30.03125 56 36.53125 56 
Q 37.453125 56 38.578125 55.875 
Q 39.703125 55.765625 41.0625 55.515625 
z
" id="DejaVuSans-114"/>
      <path d="M 48.78125 52.59375 
L 48.78125 44.1875 
Q 44.96875 46.296875 41.140625 47.34375 
Q 37.3125 48.390625 33.40625 48.390625 
Q 24.65625 48.390625 19.8125 42.84375 
Q 14.984375 37.3125 14.984375 27.296875 
Q 14.984375 17.28125 19.8125 11.734375 
Q 24.65625 6.203125 33.40625 6.203125 
Q 37.3125 6.203125 41.140625 7.25 
Q 44.96875 8.296875 48.78125 10.40625 
L 48.78125 2.09375 
Q 45.015625 0.34375 40.984375 -0.53125 
Q 36.96875 -1.421875 32.421875 -1.421875 
Q 20.0625 -1.421875 12.78125 6.34375 
Q 5.515625 14.109375 5.515625 27.296875 
Q 5.515625 40.671875 12.859375 48.328125 
Q 20.21875 56 33.015625 56 
Q 37.15625 56 41.109375 55.140625 
Q 45.0625 54.296875 48.78125 52.59375 
z
" id="DejaVuSans-99"/>
      <path d="M 18.3125 70.21875 
L 18.3125 54.6875 
L 36.8125 54.6875 
L 36.8125 47.703125 
L 18.3125 47.703125 
L 18.3125 18.015625 
Q 18.3125 11.328125 20.140625 9.421875 
Q 21.96875 7.515625 27.59375 7.515625 
L 36.8125 7.515625 
L 36.8125 0 
L 27.59375 0 
Q 17.1875 0 13.234375 3.875 
Q 9.28125 7.765625 9.28125 18.015625 
L 9.28125 47.703125 
L 2.6875 47.703125 
L 2.6875 54.6875 
L 9.28125 54.6875 
L 9.28125 70.21875 
z
" id="DejaVuSans-116"/>
      <path d="M 30.609375 48.390625 
Q 23.390625 48.390625 19.1875 42.75 
Q 14.984375 37.109375 14.984375 27.296875 
Q 14.984375 17.484375 19.15625 11.84375 
Q 23.34375 6.203125 30.609375 6.203125 
Q 37.796875 6.203125 41.984375 11.859375 
Q 46.1875 17.53125 46.1875 27.296875 
Q 46.1875 37.015625 41.984375 42.703125 
Q 37.796875 48.390625 30.609375 48.390625 
z
M 30.609375 56 
Q 42.328125 56 49.015625 48.375 
Q 55.71875 40.765625 55.71875 27.296875 
Q 55.71875 13.875 49.015625 6.21875 
Q 42.328125 -1.421875 30.609375 -1.421875 
Q 18.84375 -1.421875 12.171875 6.21875 
Q 5.515625 13.875 5.515625 27.296875 
Q 5.515625 40.765625 12.171875 48.375 
Q 18.84375 56 30.609375 56 
z
" id="DejaVuSans-111"/>
      <path d="M 9.421875 75.984375 
L 18.40625 75.984375 
L 18.40625 0 
L 9.421875 0 
z
" id="DejaVuSans-108"/>
      <path d="M 48.6875 27.296875 
Q 48.6875 37.203125 44.609375 42.84375 
Q 40.53125 48.484375 33.40625 48.484375 
Q 26.265625 48.484375 22.1875 42.84375 
Q 18.109375 37.203125 18.109375 27.296875 
Q 18.109375 17.390625 22.1875 11.75 
Q 26.265625 6.109375 33.40625 6.109375 
Q 40.53125 6.109375 44.609375 11.75 
Q 48.6875 17.390625 48.6875 27.296875 
z
M 18.109375 46.390625 
Q 20.953125 51.265625 25.265625 53.625 
Q 29.59375 56 35.59375 56 
Q 45.5625 56 51.78125 48.09375 
Q 58.015625 40.1875 58.015625 27.296875 
Q 58.015625 14.40625 51.78125 6.484375 
Q 45.5625 -1.421875 35.59375 -1.421875 
Q 29.59375 -1.421875 25.265625 0.953125 
Q 20.953125 3.328125 18.109375 8.203125 
L 18.109375 0 
L 9.078125 0 
L 9.078125 75.984375 
L 18.109375 75.984375 
z
" id="DejaVuSans-98"/>
      <path d="M 8.5 21.578125 
L 8.5 54.6875 
L 17.484375 54.6875 
L 17.484375 21.921875 
Q 17.484375 14.15625 20.5 10.265625 
Q 23.53125 6.390625 29.59375 6.390625 
Q 36.859375 6.390625 41.078125 11.03125 
Q 45.3125 15.671875 45.3125 23.6875 
L 45.3125 54.6875 
L 54.296875 54.6875 
L 54.296875 0 
L 45.3125 0 
L 45.3125 8.40625 
Q 42.046875 3.421875 37.71875 1 
Q 33.40625 -1.421875 27.6875 -1.421875 
Q 18.265625 -1.421875 13.375 4.4375 
Q 8.5 10.296875 8.5 21.578125 
z
M 31.109375 56 
z
" id="DejaVuSans-117"/>
     </defs>
     <g transform="translate(43.017187 272.402187)rotate(-90)scale(0.1 -0.1)">
      <use xlink:href="#DejaVuSans-70"/>
      <use x="50.269531" xlink:href="#DejaVuSans-114"/>
      <use x="91.382812" xlink:href="#DejaVuSans-97"/>
      <use x="152.662109" xlink:href="#DejaVuSans-99"/>
      <use x="207.642578" xlink:href="#DejaVuSans-116"/>
      <use x="246.851562" xlink:href="#DejaVuSans-105"/>
      <use x="274.634766" xlink:href="#DejaVuSans-111"/>
      <use x="335.816406" xlink:href="#DejaVuSans-110"/>
      <use x="399.195312" xlink:href="#DejaVuSans-32"/>
      <use x="430.982422" xlink:href="#DejaVuSans-108"/>
      <use x="458.765625" xlink:href="#DejaVuSans-105"/>
      <use x="486.548828" xlink:href="#DejaVuSans-103"/>
      <use x="550.025391" xlink:href="#DejaVuSans-97"/>
      <use x="611.304688" xlink:href="#DejaVuSans-110"/>
      <use x="674.683594" xlink:href="#DejaVuSans-100"/>
      <use x="738.160156" xlink:href="#DejaVuSans-32"/>
      <use x="769.947266" xlink:href="#DejaVuSans-98"/>
      <use x="833.423828" xlink:href="#DejaVuSans-111"/>
      <use x="894.605469" xlink:href="#DejaVuSans-117"/>
      <use x="957.984375" xlink:href="#DejaVuSans-110"/>
      <use x="1021.363281" xlink:href="#DejaVuSans-100"/>
     </g>
    </g>
   </g>
   <g id="line2d_19">
    <path clip-path="url(#pb2d2658a6f)" d="M 72 82.453834 
L 87.855128 82.828819 
L 100.36058 83.340271 
L 111.526163 84.020062 
L 122.468434 84.912623 
L 136.090445 86.265274 
L 156.411806 88.279188 
L 167.354077 89.120691 
L 178.296348 89.73816 
L 190.578489 90.200557 
L 205.54037 90.529024 
L 225.861731 90.736225 
L 256.902051 90.810409 
L 289.505553 90.68561 
L 309.826913 90.402255 
L 324.565483 89.980905 
L 336.624312 89.420585 
L 347.789895 88.68395 
L 359.625413 87.67675 
L 381.733267 85.500162 
L 394.908654 84.350759 
L 406.297549 83.584031 
L 417.909755 83.028083 
L 431.308454 82.617287 
L 448.28014 82.333306 
L 473.067734 82.161863 
L 518.4 82.090068 
L 518.4 82.090068 
" style="fill:none;stroke:#000000;stroke-linecap:square;"/>
   </g>
   <g id="line2d_20">
    <path clip-path="url(#pb2d2658a6f)" d="M 72 82.468293 
L 86.515258 82.840759 
L 97.234217 83.329104 
L 105.72006 83.928075 
L 112.866033 84.647898 
L 119.118759 85.500776 
L 124.478239 86.449096 
L 129.391096 87.540714 
L 133.857329 88.758441 
L 138.10025 90.152119 
L 141.896548 91.626187 
L 145.692846 93.343798 
L 149.265833 95.206861 
L 152.838819 97.328363 
L 156.411806 99.720837 
L 159.984792 102.386516 
L 163.781091 105.50417 
L 168.024012 109.290631 
L 173.383492 114.391971 
L 184.549075 125.095789 
L 188.791996 128.815054 
L 192.588294 131.864369 
L 196.161281 134.46559 
L 199.734267 136.797888 
L 203.307254 138.865841 
L 206.88024 140.68271 
L 210.676538 142.358851 
L 214.472836 143.798042 
L 218.492446 145.092908 
L 222.958679 146.291485 
L 227.648224 147.318158 
L 232.784392 148.215196 
L 238.590495 148.995113 
L 245.066533 149.630212 
L 252.212506 150.103724 
L 260.251726 150.409395 
L 268.96088 150.514003 
L 277.670035 150.400264 
L 285.932566 150.078247 
L 293.525163 149.565936 
L 300.447824 148.876075 
L 306.70055 148.027138 
L 312.283342 147.04956 
L 317.41951 145.934406 
L 322.332366 144.645715 
L 327.021911 143.189137 
L 331.488144 141.57776 
L 335.954377 139.734134 
L 340.42061 137.650604 
L 344.886843 135.326909 
L 349.576388 132.638063 
L 354.712556 129.426005 
L 360.518659 125.514075 
L 367.887944 120.254754 
L 384.636318 108.196947 
L 390.442421 104.340139 
L 395.578589 101.181281 
L 400.491446 98.418592 
L 405.18099 96.036042 
L 409.870535 93.908852 
L 414.56008 92.034434 
L 419.249625 90.40272 
L 424.162481 88.936442 
L 429.298649 87.645409 
L 434.658129 86.531503 
L 440.464232 85.555838 
L 446.94027 84.703224 
L 454.086243 83.992817 
L 462.348774 83.400755 
L 472.174487 82.925871 
L 484.67994 82.557225 
L 501.428314 82.300556 
L 518.4 82.180577 
L 518.4 82.180577 
" style="fill:none;stroke:#000000;stroke-linecap:square;"/>
    <defs>
     <path d="M -3 0 
L 3 0 
M 0 3 
L 0 -3 
" id="mc0a762f7cc" style="stroke:#000000;"/>
    </defs>
    <g clip-path="url(#pb2d2658a6f)">
     <use style="stroke:#000000;" x="72" xlink:href="#mc0a762f7cc" y="82.468293"/>
     <use style="stroke:#000000;" x="94.331166" xlink:href="#mc0a762f7cc" y="83.172233"/>
     <use style="stroke:#000000;" x="116.662331" xlink:href="#mc0a762f7cc" y="85.136732"/>
     <use style="stroke:#000000;" x="138.993497" xlink:href="#mc0a762f7cc" y="90.47853"/>
     <use style="stroke:#000000;" x="161.324662" xlink:href="#mc0a762f7cc" y="103.454631"/>
     <use style="stroke:#000000;" x="183.655828" xlink:href="#mc0a762f7cc" y="124.27717"/>
     <use style="stroke:#000000;" x="205.986993" xlink:href="#mc0a762f7cc" y="140.251079"/>
     <use style="stroke:#000000;" x="228.318159" xlink:href="#mc0a762f7cc" y="147.447722"/>
     <use style="stroke:#000000;" x="250.649325" xlink:href="#mc0a762f7cc" y="150.017882"/>
     <use style="stroke:#000000;" x="272.98049" xlink:href="#mc0a762f7cc" y="150.488749"/>
     <use style="stroke:#000000;" x="295.311656" xlink:href="#mc0a762f7cc" y="149.410193"/>
     <use style="stroke:#000000;" x="317.642821" xlink:href="#mc0a762f7cc" y="145.880747"/>
     <use style="stroke:#000000;" x="339.973987" xlink:href="#mc0a762f7cc" y="137.869826"/>
     <use style="stroke:#000000;" x="362.305153" xlink:href="#mc0a762f7cc" y="124.26284"/>
     <use style="stroke:#000000;" x="384.636318" xlink:href="#mc0a762f7cc" y="108.196947"/>
     <use style="stroke:#000000;" x="406.967484" xlink:href="#mc0a762f7cc" y="95.19553"/>
     <use style="stroke:#000000;" x="429.298649" xlink:href="#mc0a762f7cc" y="87.645409"/>
     <use style="stroke:#000000;" x="451.629815" xlink:href="#mc0a762f7cc" y="84.213325"/>
     <use style="stroke:#000000;" x="473.96098" xlink:href="#mc0a762f7cc" y="82.859692"/>
     <use style="stroke:#000000;" x="496.292146" xlink:href="#mc0a762f7cc" y="82.359579"/>
    </g>
   </g>
   <g id="line2d_21">
    <path clip-path="url(#pb2d2658a6f)" d="M 72 82.469801 
L 86.291946 82.838648 
L 96.787594 83.318827 
L 105.273437 83.924196 
L 112.196098 84.634888 
L 118.002201 85.442639 
L 123.138369 86.373403 
L 127.604602 87.396718 
L 131.624212 88.532909 
L 135.42051 89.838531 
L 138.770185 91.220111 
L 141.896548 92.74444 
L 144.7996 94.402538 
L 147.47934 96.178825 
L 150.15908 98.233395 
L 152.615508 100.403685 
L 154.848624 102.654629 
L 157.081741 105.2127 
L 159.314857 108.126528 
L 161.324662 111.10041 
L 163.334467 114.457793 
L 165.344272 118.255257 
L 167.354077 122.557688 
L 169.363882 127.438467 
L 171.373687 132.978569 
L 173.383492 139.263598 
L 175.393297 146.377203 
L 177.403102 154.388725 
L 179.412906 163.332832 
L 181.646023 174.326264 
L 184.325763 188.720405 
L 191.695048 229.089383 
L 193.928164 239.650038 
L 195.937969 248.0843 
L 197.947774 255.497382 
L 199.734267 261.280494 
L 201.52076 266.375275 
L 203.307254 270.857106 
L 205.093747 274.800237 
L 207.103552 278.677714 
L 209.113357 282.047139 
L 211.123162 284.983207 
L 213.132966 287.549224 
L 215.366083 290.03084 
L 217.5992 292.181954 
L 220.055628 294.225909 
L 222.512056 295.984832 
L 225.191796 297.630432 
L 228.094847 299.143616 
L 231.221211 300.512411 
L 234.570885 301.730728 
L 238.143872 302.797035 
L 242.163482 303.760832 
L 246.629715 304.593163 
L 251.542571 305.27324 
L 256.902051 305.785127 
L 262.708154 306.113281 
L 268.96088 306.236737 
L 275.213607 306.137017 
L 281.243022 305.826164 
L 287.049125 305.309352 
L 292.408604 304.615651 
L 297.321461 303.766122 
L 302.011006 302.731119 
L 306.253927 301.574162 
L 310.273537 300.254126 
L 314.069835 298.778298 
L 317.642821 297.159111 
L 321.215808 295.289807 
L 324.565483 293.285562 
L 327.915158 291.013807 
L 331.041521 288.631659 
L 334.167884 285.97806 
L 337.294247 283.036134 
L 340.42061 279.791022 
L 343.546973 276.230625 
L 346.673337 272.346349 
L 350.023012 267.820327 
L 353.372686 262.918294 
L 356.945673 257.283877 
L 360.741971 250.859311 
L 364.761581 243.602517 
L 369.227814 235.057032 
L 374.363982 224.719602 
L 380.84002 211.153796 
L 398.481641 173.912131 
L 403.841121 163.25172 
L 408.530665 154.388496 
L 412.996898 146.420419 
L 417.016508 139.683889 
L 421.036118 133.38493 
L 424.832416 127.851951 
L 428.405403 123.019723 
L 431.978389 118.552006 
L 435.551376 114.445 
L 439.124362 110.691029 
L 442.474037 107.482482 
L 445.823712 104.562992 
L 449.396698 101.752343 
L 452.969685 99.237141 
L 456.542671 96.997767 
L 460.115658 95.013665 
L 463.911956 93.161775 
L 467.931566 91.461283 
L 471.951176 89.999961 
L 476.194097 88.686168 
L 480.883642 87.47119 
L 485.796498 86.425691 
L 491.37929 85.472066 
L 497.408704 84.668775 
L 504.331366 83.973052 
L 512.370585 83.392571 
L 518.4 83.075918 
L 518.4 83.075918 
" style="fill:none;stroke:#000000;stroke-linecap:square;"/>
    <defs>
     <path d="M -3 3 
L 3 -3 
M -3 -3 
L 3 3 
" id="mfbe85b97f3" style="stroke:#000000;"/>
    </defs>
    <g clip-path="url(#pb2d2658a6f)">
     <use style="stroke:#000000;" x="72" xlink:href="#mfbe85b97f3" y="82.469801"/>
     <use style="stroke:#000000;" x="94.331166" xlink:href="#mfbe85b97f3" y="83.184344"/>
     <use style="stroke:#000000;" x="116.662331" xlink:href="#mfbe85b97f3" y="85.235674"/>
     <use style="stroke:#000000;" x="138.993497" xlink:href="#mfbe85b97f3" y="91.320965"/>
     <use style="stroke:#000000;" x="161.324662" xlink:href="#mfbe85b97f3" y="111.10041"/>
     <use style="stroke:#000000;" x="183.655828" xlink:href="#mfbe85b97f3" y="185.026334"/>
     <use style="stroke:#000000;" x="205.986993" xlink:href="#mfbe85b97f3" y="276.59156"/>
     <use style="stroke:#000000;" x="228.318159" xlink:href="#mfbe85b97f3" y="299.249776"/>
     <use style="stroke:#000000;" x="250.649325" xlink:href="#mfbe85b97f3" y="305.165794"/>
     <use style="stroke:#000000;" x="272.98049" xlink:href="#mfbe85b97f3" y="306.198085"/>
     <use style="stroke:#000000;" x="295.311656" xlink:href="#mfbe85b97f3" y="304.140565"/>
     <use style="stroke:#000000;" x="317.642821" xlink:href="#mfbe85b97f3" y="297.159111"/>
     <use style="stroke:#000000;" x="339.973987" xlink:href="#mfbe85b97f3" y="280.273665"/>
     <use style="stroke:#000000;" x="362.305153" xlink:href="#mfbe85b97f3" y="248.090157"/>
     <use style="stroke:#000000;" x="384.636318" xlink:href="#mfbe85b97f3" y="203.057617"/>
     <use style="stroke:#000000;" x="406.967484" xlink:href="#mfbe85b97f3" y="157.289448"/>
     <use style="stroke:#000000;" x="429.298649" xlink:href="#mfbe85b97f3" y="121.868698"/>
     <use style="stroke:#000000;" x="451.629815" xlink:href="#mfbe85b97f3" y="100.146939"/>
     <use style="stroke:#000000;" x="473.96098" xlink:href="#mfbe85b97f3" y="89.350219"/>
     <use style="stroke:#000000;" x="496.292146" xlink:href="#mfbe85b97f3" y="84.802131"/>
    </g>
   </g>
   <g id="line2d_22">
    <path clip-path="url(#pb2d2658a6f)" d="M 72 82.469953 
L 86.291946 82.839224 
L 96.787594 83.320372 
L 105.050125 83.908325 
L 111.972786 84.614638 
L 117.778889 85.418635 
L 122.915058 86.346735 
L 127.381291 87.369246 
L 131.4009 88.507247 
L 134.973887 89.734165 
L 138.323562 91.110098 
L 141.449925 92.633352 
L 144.352976 94.296758 
L 147.032716 96.086654 
L 149.489145 97.981971 
L 151.945573 100.165235 
L 154.178689 102.444352 
L 156.411806 105.054062 
L 158.421611 107.734716 
L 160.431416 110.784982 
L 162.441221 114.270278 
L 164.227714 117.798469 
L 166.014207 121.803928 
L 167.8007 126.372667 
L 169.587194 131.611514 
L 171.150375 136.849762 
L 172.713557 142.815099 
L 174.276738 149.646367 
L 175.83992 157.51695 
L 177.403102 166.644317 
L 178.966283 177.300979 
L 180.306153 187.906228 
L 181.646023 200.132168 
L 182.985893 214.249521 
L 184.325763 230.496796 
L 185.888944 252.210585 
L 190.355178 317.139336 
L 191.471736 328.547145 
L 192.364982 335.724633 
L 193.258229 341.455818 
L 194.151476 346.038421 
L 195.268034 350.542115 
L 196.384592 354.042754 
L 197.501151 356.815539 
L 198.617709 359.051688 
L 199.957579 361.211842 
L 201.297449 362.948721 
L 202.86063 364.582076 
L 204.423812 365.90128 
L 206.210305 367.124121 
L 208.22011 368.230387 
L 210.453227 369.213285 
L 213.132966 370.143909 
L 216.25933 370.983848 
L 220.055628 371.75485 
L 224.521861 372.422372 
L 229.881341 372.994445 
L 236.58069 373.480291 
L 245.066533 373.864622 
L 256.008804 374.125713 
L 269.407504 374.214673 
L 283.252826 374.089671 
L 295.311656 373.767852 
L 305.137369 373.291096 
L 313.176588 372.688489 
L 320.09925 371.952765 
L 326.128664 371.091872 
L 331.488144 370.10401 
L 336.401001 368.96775 
L 340.867234 367.700963 
L 344.886843 366.333734 
L 348.683142 364.811442 
L 352.256128 363.14297 
L 355.605803 361.343351 
L 358.955478 359.288227 
L 362.081841 357.114459 
L 365.208204 354.669391 
L 368.334567 351.928881 
L 371.237619 349.098764 
L 374.14067 345.975099 
L 377.043722 342.540931 
L 379.946773 338.781228 
L 383.073137 334.35401 
L 386.1995 329.523395 
L 389.325863 324.283104 
L 392.675538 318.213591 
L 396.025213 311.681252 
L 399.598199 304.222413 
L 403.394497 295.777291 
L 407.637419 285.767984 
L 412.326963 274.111664 
L 417.909755 259.620289 
L 426.618909 236.301854 
L 436.667934 209.536849 
L 442.474037 194.684988 
L 447.610205 182.152997 
L 452.076438 171.818739 
L 456.31936 162.546128 
L 460.338969 154.287607 
L 464.135268 146.979 
L 467.931566 140.15932 
L 471.504552 134.191758 
L 475.077539 128.660524 
L 478.427214 123.86655 
L 481.776888 119.443848 
L 485.126563 115.3822 
L 488.476238 111.66903 
L 491.825913 108.289729 
L 495.175588 105.227985 
L 498.525263 102.466127 
L 501.874937 99.985463 
L 505.224612 97.766636 
L 508.797599 95.6663 
L 512.370585 93.817579 
L 516.166883 92.102743 
L 518.4 91.203295 
L 518.4 91.203295 
" style="fill:none;stroke:#000000;stroke-linecap:square;"/>
    <defs>
     <path d="M 0 4.242641 
L 2.545584 0 
L 0 -4.242641 
L -2.545584 0 
z
" id="m7498b6de38" style="stroke:#000000;stroke-linejoin:miter;"/>
    </defs>
    <g clip-path="url(#pb2d2658a6f)">
     <use style="stroke:#000000;stroke-linejoin:miter;" x="72" xlink:href="#m7498b6de38" y="82.469953"/>
     <use style="stroke:#000000;stroke-linejoin:miter;" x="94.331166" xlink:href="#m7498b6de38" y="83.18557"/>
     <use style="stroke:#000000;stroke-linejoin:miter;" x="116.662331" xlink:href="#m7498b6de38" y="85.245933"/>
     <use style="stroke:#000000;stroke-linejoin:miter;" x="138.993497" xlink:href="#m7498b6de38" y="91.415533"/>
     <use style="stroke:#000000;stroke-linejoin:miter;" x="161.324662" xlink:href="#m7498b6de38" y="112.275892"/>
     <use style="stroke:#000000;stroke-linejoin:miter;" x="183.655828" xlink:href="#m7498b6de38" y="222.096169"/>
     <use style="stroke:#000000;stroke-linejoin:miter;" x="205.986993" xlink:href="#m7498b6de38" y="366.985084"/>
     <use style="stroke:#000000;stroke-linejoin:miter;" x="228.318159" xlink:href="#m7498b6de38" y="372.847985"/>
     <use style="stroke:#000000;stroke-linejoin:miter;" x="250.649325" xlink:href="#m7498b6de38" y="374.023759"/>
     <use style="stroke:#000000;stroke-linejoin:miter;" x="272.98049" xlink:href="#m7498b6de38" y="374.203629"/>
     <use style="stroke:#000000;stroke-linejoin:miter;" x="295.311656" xlink:href="#m7498b6de38" y="373.767852"/>
     <use style="stroke:#000000;stroke-linejoin:miter;" x="317.642821" xlink:href="#m7498b6de38" y="372.241102"/>
     <use style="stroke:#000000;stroke-linejoin:miter;" x="339.973987" xlink:href="#m7498b6de38" y="367.974224"/>
     <use style="stroke:#000000;stroke-linejoin:miter;" x="362.305153" xlink:href="#m7498b6de38" y="356.949095"/>
     <use style="stroke:#000000;stroke-linejoin:miter;" x="384.636318" xlink:href="#m7498b6de38" y="331.989649"/>
     <use style="stroke:#000000;stroke-linejoin:miter;" x="406.967484" xlink:href="#m7498b6de38" y="287.385108"/>
     <use style="stroke:#000000;stroke-linejoin:miter;" x="429.298649" xlink:href="#m7498b6de38" y="229.092107"/>
     <use style="stroke:#000000;stroke-linejoin:miter;" x="451.629815" xlink:href="#m7498b6de38" y="172.826537"/>
     <use style="stroke:#000000;stroke-linejoin:miter;" x="473.96098" xlink:href="#m7498b6de38" y="130.342406"/>
     <use style="stroke:#000000;stroke-linejoin:miter;" x="496.292146" xlink:href="#m7498b6de38" y="104.27495"/>
    </g>
   </g>
   <g id="line2d_23">
    <path clip-path="url(#pb2d2658a6f)" d="M 72 82.469968 
L 86.291946 82.839282 
L 96.787594 83.320527 
L 105.050125 83.908664 
L 111.972786 84.615294 
L 117.778889 85.419782 
L 122.915058 86.348628 
L 127.381291 87.372188 
L 131.4009 88.511645 
L 134.973887 89.740485 
L 138.323562 91.119026 
L 141.449925 92.645747 
L 144.352976 94.313666 
L 147.032716 96.109305 
L 149.489145 98.011755 
L 151.945573 100.204648 
L 154.178689 102.495523 
L 156.411806 105.120967 
L 158.421611 107.820468 
L 160.431416 110.895721 
L 162.441221 114.414528 
L 164.227714 117.982462 
L 166.014207 122.040747 
L 167.8007 126.680672 
L 169.587194 132.016969 
L 171.150375 137.371431 
L 172.713557 143.494706 
L 174.276738 150.54465 
L 175.83992 158.724617 
L 177.17979 166.835091 
L 178.51966 176.188207 
L 179.85953 187.067204 
L 181.1994 199.845425 
L 182.53927 215.02236 
L 183.655828 229.982835 
L 184.772386 247.58672 
L 185.888944 268.468452 
L 187.005503 293.286111 
L 188.568684 334.004968 
L 189.461931 355.146712 
L 190.131866 365.422252 
L 190.578489 369.663714 
L 191.248424 373.616789 
L 191.918359 375.969657 
L 192.588294 377.486856 
L 193.258229 378.533207 
L 194.151476 379.502455 
L 195.268034 380.31883 
L 196.607904 380.974506 
L 198.171086 381.490351 
L 200.404202 381.974128 
L 203.530565 382.392619 
L 207.996798 382.741012 
L 214.91946 383.029496 
L 226.085043 383.246491 
L 246.183092 383.386685 
L 284.146073 383.404697 
L 315.186393 383.231505 
L 333.051326 382.9247 
L 345.556778 382.496372 
L 355.15918 381.952615 
L 362.975088 381.295644 
L 369.674437 380.514377 
L 375.48054 379.618656 
L 380.616708 378.608799 
L 385.306253 377.465083 
L 389.549175 376.209599 
L 393.568784 374.790793 
L 397.365083 373.211824 
L 400.938069 371.481905 
L 404.287744 369.616644 
L 407.637419 367.487236 
L 410.763782 365.235594 
L 413.890145 362.703711 
L 417.016508 359.866805 
L 419.91956 356.938089 
L 422.822611 353.706661 
L 425.725663 350.15525 
L 428.628714 346.268606 
L 431.755078 341.693723 
L 434.881441 336.70413 
L 438.007804 331.293787 
L 441.357479 325.030289 
L 444.707154 318.292551 
L 448.28014 310.603206 
L 452.076438 301.901934 
L 456.31936 291.595177 
L 461.008904 279.600093 
L 466.815008 264.091148 
L 476.194097 238.267071 
L 485.573187 212.660565 
L 491.37929 197.443805 
L 496.292146 185.156459 
L 500.758379 174.5516 
L 505.001301 165.034936 
L 509.02091 156.55719 
L 512.817209 149.052355 
L 516.613507 142.046983 
L 518.4 138.924747 
L 518.4 138.924747 
" style="fill:none;stroke:#000000;stroke-linecap:square;"/>
    <defs>
     <path d="M -3 3 
L 3 3 
L 3 -3 
L -3 -3 
z
" id="ma54c1b38d2" style="stroke:#000000;stroke-linejoin:miter;"/>
    </defs>
    <g clip-path="url(#pb2d2658a6f)">
     <use style="stroke:#000000;stroke-linejoin:miter;" x="72" xlink:href="#ma54c1b38d2" y="82.469968"/>
     <use style="stroke:#000000;stroke-linejoin:miter;" x="94.331166" xlink:href="#ma54c1b38d2" y="83.185693"/>
     <use style="stroke:#000000;stroke-linejoin:miter;" x="116.662331" xlink:href="#ma54c1b38d2" y="85.246963"/>
     <use style="stroke:#000000;stroke-linejoin:miter;" x="138.993497" xlink:href="#ma54c1b38d2" y="91.425107"/>
     <use style="stroke:#000000;stroke-linejoin:miter;" x="161.324662" xlink:href="#ma54c1b38d2" y="112.400295"/>
     <use style="stroke:#000000;stroke-linejoin:miter;" x="183.655828" xlink:href="#ma54c1b38d2" y="229.982835"/>
     <use style="stroke:#000000;stroke-linejoin:miter;" x="205.986993" xlink:href="#ma54c1b38d2" y="382.608425"/>
     <use style="stroke:#000000;stroke-linejoin:miter;" x="228.318159" xlink:href="#ma54c1b38d2" y="383.272408"/>
     <use style="stroke:#000000;stroke-linejoin:miter;" x="250.649325" xlink:href="#ma54c1b38d2" y="383.399853"/>
     <use style="stroke:#000000;stroke-linejoin:miter;" x="272.98049" xlink:href="#ma54c1b38d2" y="383.418972"/>
     <use style="stroke:#000000;stroke-linejoin:miter;" x="295.311656" xlink:href="#ma54c1b38d2" y="383.371267"/>
     <use style="stroke:#000000;stroke-linejoin:miter;" x="317.642821" xlink:href="#ma54c1b38d2" y="383.202934"/>
     <use style="stroke:#000000;stroke-linejoin:miter;" x="339.973987" xlink:href="#ma54c1b38d2" y="382.718241"/>
     <use style="stroke:#000000;stroke-linejoin:miter;" x="362.305153" xlink:href="#ma54c1b38d2" y="381.361538"/>
     <use style="stroke:#000000;stroke-linejoin:miter;" x="384.636318" xlink:href="#ma54c1b38d2" y="377.643124"/>
     <use style="stroke:#000000;stroke-linejoin:miter;" x="406.967484" xlink:href="#ma54c1b38d2" y="367.935641"/>
     <use style="stroke:#000000;stroke-linejoin:miter;" x="429.298649" xlink:href="#ma54c1b38d2" y="345.32269"/>
     <use style="stroke:#000000;stroke-linejoin:miter;" x="451.629815" xlink:href="#ma54c1b38d2" y="302.952435"/>
     <use style="stroke:#000000;stroke-linejoin:miter;" x="473.96098" xlink:href="#ma54c1b38d2" y="244.44484"/>
     <use style="stroke:#000000;stroke-linejoin:miter;" x="496.292146" xlink:href="#ma54c1b38d2" y="185.156459"/>
    </g>
   </g>
   <g id="line2d_24">
    <path clip-path="url(#pb2d2658a6f)" d="M 72 82.469969 
L 86.291946 82.839287 
L 96.787594 83.320542 
L 105.050125 83.908698 
L 111.972786 84.615359 
L 117.778889 85.419897 
L 122.915058 86.348817 
L 127.381291 87.372482 
L 131.4009 88.512085 
L 134.973887 89.741118 
L 138.323562 91.11992 
L 141.449925 92.646988 
L 144.352976 94.315359 
L 147.032716 96.111574 
L 149.489145 98.014741 
L 151.945573 100.208601 
L 154.178689 102.500657 
L 156.411806 105.127684 
L 158.421611 107.829083 
L 160.431416 110.906855 
L 162.441221 114.429047 
L 164.227714 118.001002 
L 166.014207 122.064645 
L 167.8007 126.711809 
L 169.587194 132.058054 
L 171.150375 137.424432 
L 172.713557 143.56399 
L 174.276738 150.636638 
L 175.83992 158.849041 
L 177.17979 166.999161 
L 178.51966 176.408868 
L 179.85953 187.371192 
L 181.1994 200.276924 
L 182.53927 215.658792 
L 183.655828 230.896998 
L 184.772386 248.962583 
L 185.888944 270.677855 
L 187.005503 297.190407 
L 188.122061 330.01766 
L 189.461931 374.576089 
L 189.908554 380.386873 
L 190.355178 382.132035 
L 190.801801 382.850768 
L 191.471736 383.361194 
L 192.364982 383.684568 
L 193.928164 383.94254 
L 196.831216 384.132005 
L 203.083942 384.264642 
L 220.502251 384.347514 
L 291.738669 384.370069 
L 353.149375 384.23828 
L 375.48054 383.982719 
L 389.772486 383.611157 
L 400.491446 383.119516 
L 408.977289 382.517725 
L 416.123262 381.796064 
L 422.375988 380.942809 
L 427.735468 379.995779 
L 432.648324 378.907001 
L 437.114557 377.6929 
L 441.134167 376.38174 
L 444.930465 374.920599 
L 448.503452 373.317416 
L 452.076438 371.46212 
L 455.426113 369.464589 
L 458.552476 367.348884 
L 461.678839 364.965609 
L 464.805203 362.289957 
L 467.708254 359.521989 
L 470.611306 356.461299 
L 473.514357 353.089679 
L 476.417409 349.390575 
L 479.32046 345.349732 
L 482.446823 340.60298 
L 485.573187 335.437393 
L 488.69955 329.849197 
L 492.049225 323.395958 
L 495.622211 315.994779 
L 499.195198 308.08502 
L 503.214807 298.626537 
L 507.681041 287.505944 
L 512.817209 274.072942 
L 518.4 258.923704 
L 518.4 258.923704 
" style="fill:none;stroke:#000000;stroke-linecap:square;"/>
    <defs>
     <path d="M -1.14805 -2.771639 
L -2.771639 -1.14805 
L -2.771639 1.14805 
L -1.14805 2.771639 
L 1.14805 2.771639 
L 2.771639 1.14805 
L 2.771639 -1.14805 
L 1.14805 -2.771639 
z
" id="mdafa51b0a4" style="stroke:#000000;stroke-linejoin:miter;"/>
    </defs>
    <g clip-path="url(#pb2d2658a6f)">
     <use style="stroke:#000000;stroke-linejoin:miter;" x="72" xlink:href="#mdafa51b0a4" y="82.469969"/>
     <use style="stroke:#000000;stroke-linejoin:miter;" x="94.331166" xlink:href="#mdafa51b0a4" y="83.185705"/>
     <use style="stroke:#000000;stroke-linejoin:miter;" x="116.662331" xlink:href="#mdafa51b0a4" y="85.247066"/>
     <use style="stroke:#000000;stroke-linejoin:miter;" x="138.993497" xlink:href="#mdafa51b0a4" y="91.426066"/>
     <use style="stroke:#000000;stroke-linejoin:miter;" x="161.324662" xlink:href="#mdafa51b0a4" y="112.412809"/>
     <use style="stroke:#000000;stroke-linejoin:miter;" x="183.655828" xlink:href="#mdafa51b0a4" y="230.896998"/>
     <use style="stroke:#000000;stroke-linejoin:miter;" x="205.986993" xlink:href="#mdafa51b0a4" y="384.291518"/>
     <use style="stroke:#000000;stroke-linejoin:miter;" x="228.318159" xlink:href="#mdafa51b0a4" y="384.358778"/>
     <use style="stroke:#000000;stroke-linejoin:miter;" x="250.649325" xlink:href="#mdafa51b0a4" y="384.371627"/>
     <use style="stroke:#000000;stroke-linejoin:miter;" x="272.98049" xlink:href="#mdafa51b0a4" y="384.373551"/>
     <use style="stroke:#000000;stroke-linejoin:miter;" x="295.311656" xlink:href="#mdafa51b0a4" y="384.368736"/>
     <use style="stroke:#000000;stroke-linejoin:miter;" x="317.642821" xlink:href="#mdafa51b0a4" y="384.351733"/>
     <use style="stroke:#000000;stroke-linejoin:miter;" x="339.973987" xlink:href="#mdafa51b0a4" y="384.302614"/>
     <use style="stroke:#000000;stroke-linejoin:miter;" x="362.305153" xlink:href="#mdafa51b0a4" y="384.163833"/>
     <use style="stroke:#000000;stroke-linejoin:miter;" x="384.636318" xlink:href="#mdafa51b0a4" y="383.77351"/>
     <use style="stroke:#000000;stroke-linejoin:miter;" x="406.967484" xlink:href="#mdafa51b0a4" y="382.681962"/>
     <use style="stroke:#000000;stroke-linejoin:miter;" x="429.298649" xlink:href="#mdafa51b0a4" y="379.674491"/>
     <use style="stroke:#000000;stroke-linejoin:miter;" x="451.629815" xlink:href="#mdafa51b0a4" y="371.708922"/>
     <use style="stroke:#000000;stroke-linejoin:miter;" x="473.96098" xlink:href="#mdafa51b0a4" y="352.542288"/>
     <use style="stroke:#000000;stroke-linejoin:miter;" x="496.292146" xlink:href="#mdafa51b0a4" y="314.549449"/>
    </g>
   </g>
   <g id="patch_3">
    <path d="M 72 384.48 
L 72 51.84 
" style="fill:none;stroke:#000000;stroke-linecap:square;stroke-linejoin:miter;stroke-width:0.8;"/>
   </g>
   <g id="patch_4">
    <path d="M 518.4 384.48 
L 518.4 51.84 
" style="fill:none;stroke:#000000;stroke-linecap:square;stroke-linejoin:miter;stroke-width:0.8;"/>
   </g>
   <g id="patch_5">
    <path d="M 72 384.48 
L 518.4 384.48 
" style="fill:none;stroke:#000000;stroke-linecap:square;stroke-linejoin:miter;stroke-width:0.8;"/>
   </g>
   <g id="patch_6">
    <path d="M 72 51.84 
L 518.4 51.84 
" style="fill:none;stroke:#000000;stroke-linecap:square;stroke-linejoin:miter;stroke-width:0.8;"/>
   </g>
   <g id="text_21">
    <!-- Fraction ligand bound over a range of ligand K$_\mathrm{D}$s, [L]=10 nM, [I]=10 $\mathrm{\mu}$M -->
    <defs>
     <path d="M 2.984375 54.6875 
L 12.5 54.6875 
L 29.59375 8.796875 
L 46.6875 54.6875 
L 56.203125 54.6875 
L 35.6875 0 
L 23.484375 0 
z
" id="DejaVuSans-118"/>
     <path d="M 56.203125 29.59375 
L 56.203125 25.203125 
L 14.890625 25.203125 
Q 15.484375 15.921875 20.484375 11.0625 
Q 25.484375 6.203125 34.421875 6.203125 
Q 39.59375 6.203125 44.453125 7.46875 
Q 49.3125 8.734375 54.109375 11.28125 
L 54.109375 2.78125 
Q 49.265625 0.734375 44.1875 -0.34375 
Q 39.109375 -1.421875 33.890625 -1.421875 
Q 20.796875 -1.421875 13.15625 6.1875 
Q 5.515625 13.8125 5.515625 26.8125 
Q 5.515625 40.234375 12.765625 48.109375 
Q 20.015625 56 32.328125 56 
Q 43.359375 56 49.78125 48.890625 
Q 56.203125 41.796875 56.203125 29.59375 
z
M 47.21875 32.234375 
Q 47.125 39.59375 43.09375 43.984375 
Q 39.0625 48.390625 32.421875 48.390625 
Q 24.90625 48.390625 20.390625 44.140625 
Q 15.875 39.890625 15.1875 32.171875 
z
" id="DejaVuSans-101"/>
     <path d="M 37.109375 75.984375 
L 37.109375 68.5 
L 28.515625 68.5 
Q 23.6875 68.5 21.796875 66.546875 
Q 19.921875 64.59375 19.921875 59.515625 
L 19.921875 54.6875 
L 34.71875 54.6875 
L 34.71875 47.703125 
L 19.921875 47.703125 
L 19.921875 0 
L 10.890625 0 
L 10.890625 47.703125 
L 2.296875 47.703125 
L 2.296875 54.6875 
L 10.890625 54.6875 
L 10.890625 58.5 
Q 10.890625 67.625 15.140625 71.796875 
Q 19.390625 75.984375 28.609375 75.984375 
z
" id="DejaVuSans-102"/>
     <path d="M 44.28125 53.078125 
L 44.28125 44.578125 
Q 40.484375 46.53125 36.375 47.5 
Q 32.28125 48.484375 27.875 48.484375 
Q 21.1875 48.484375 17.84375 46.4375 
Q 14.5 44.390625 14.5 40.28125 
Q 14.5 37.15625 16.890625 35.375 
Q 19.28125 33.59375 26.515625 31.984375 
L 29.59375 31.296875 
Q 39.15625 29.25 43.1875 25.515625 
Q 47.21875 21.78125 47.21875 15.09375 
Q 47.21875 7.46875 41.1875 3.015625 
Q 35.15625 -1.421875 24.609375 -1.421875 
Q 20.21875 -1.421875 15.453125 -0.5625 
Q 10.6875 0.296875 5.421875 2 
L 5.421875 11.28125 
Q 10.40625 8.6875 15.234375 7.390625 
Q 20.0625 6.109375 24.8125 6.109375 
Q 31.15625 6.109375 34.5625 8.28125 
Q 37.984375 10.453125 37.984375 14.40625 
Q 37.984375 18.0625 35.515625 20.015625 
Q 33.0625 21.96875 24.703125 23.78125 
L 21.578125 24.515625 
Q 13.234375 26.265625 9.515625 29.90625 
Q 5.8125 33.546875 5.8125 39.890625 
Q 5.8125 47.609375 11.28125 51.796875 
Q 16.75 56 26.8125 56 
Q 31.78125 56 36.171875 55.265625 
Q 40.578125 54.546875 44.28125 53.078125 
z
" id="DejaVuSans-115"/>
     <path d="M 11.71875 12.40625 
L 22.015625 12.40625 
L 22.015625 4 
L 14.015625 -11.625 
L 7.71875 -11.625 
L 11.71875 4 
z
" id="DejaVuSans-44"/>
     <path d="M 8.59375 75.984375 
L 29.296875 75.984375 
L 29.296875 69 
L 17.578125 69 
L 17.578125 -6.203125 
L 29.296875 -6.203125 
L 29.296875 -13.1875 
L 8.59375 -13.1875 
z
" id="DejaVuSans-91"/>
     <path d="M 30.421875 75.984375 
L 30.421875 -13.1875 
L 9.71875 -13.1875 
L 9.71875 -6.203125 
L 21.390625 -6.203125 
L 21.390625 69 
L 9.71875 69 
L 9.71875 75.984375 
z
" id="DejaVuSans-93"/>
     <path d="M 10.59375 45.40625 
L 73.1875 45.40625 
L 73.1875 37.203125 
L 10.59375 37.203125 
z
M 10.59375 25.484375 
L 73.1875 25.484375 
L 73.1875 17.1875 
L 10.59375 17.1875 
z
" id="DejaVuSans-61"/>
     <path d="M 9.8125 72.90625 
L 19.671875 72.90625 
L 19.671875 0 
L 9.8125 0 
z
" id="DejaVuSans-73"/>
    </defs>
    <g transform="translate(79.74 32.37825)scale(0.12 -0.12)">
     <use transform="translate(0 0.015625)" xlink:href="#DejaVuSans-70"/>
     <use transform="translate(57.519531 0.015625)" xlink:href="#DejaVuSans-114"/>
     <use transform="translate(98.632812 0.015625)" xlink:href="#DejaVuSans-97"/>
     <use transform="translate(159.912109 0.015625)" xlink:href="#DejaVuSans-99"/>
     <use transform="translate(214.892578 0.015625)" xlink:href="#DejaVuSans-116"/>
     <use transform="translate(254.101562 0.015625)" xlink:href="#DejaVuSans-105"/>
     <use transform="translate(281.884766 0.015625)" xlink:href="#DejaVuSans-111"/>
     <use transform="translate(343.066406 0.015625)" xlink:href="#DejaVuSans-110"/>
     <use transform="translate(406.445312 0.015625)" xlink:href="#DejaVuSans-32"/>
     <use transform="translate(438.232422 0.015625)" xlink:href="#DejaVuSans-108"/>
     <use transform="translate(466.015625 0.015625)" xlink:href="#DejaVuSans-105"/>
     <use transform="translate(493.798828 0.015625)" xlink:href="#DejaVuSans-103"/>
     <use transform="translate(557.275391 0.015625)" xlink:href="#DejaVuSans-97"/>
     <use transform="translate(618.554688 0.015625)" xlink:href="#DejaVuSans-110"/>
     <use transform="translate(681.933594 0.015625)" xlink:href="#DejaVuSans-100"/>
     <use transform="translate(745.410156 0.015625)" xlink:href="#DejaVuSans-32"/>
     <use transform="translate(777.197266 0.015625)" xlink:href="#DejaVuSans-98"/>
     <use transform="translate(840.673828 0.015625)" xlink:href="#DejaVuSans-111"/>
     <use transform="translate(901.855469 0.015625)" xlink:href="#DejaVuSans-117"/>
     <use transform="translate(965.234375 0.015625)" xlink:href="#DejaVuSans-110"/>
     <use transform="translate(1028.613281 0.015625)" xlink:href="#DejaVuSans-100"/>
     <use transform="translate(1092.089844 0.015625)" xlink:href="#DejaVuSans-32"/>
     <use transform="translate(1123.876953 0.015625)" xlink:href="#DejaVuSans-111"/>
     <use transform="translate(1185.058594 0.015625)" xlink:href="#DejaVuSans-118"/>
     <use transform="translate(1244.238281 0.015625)" xlink:href="#DejaVuSans-101"/>
     <use transform="translate(1305.761719 0.015625)" xlink:href="#DejaVuSans-114"/>
     <use transform="translate(1346.875 0.015625)" xlink:href="#DejaVuSans-32"/>
     <use transform="translate(1378.662109 0.015625)" xlink:href="#DejaVuSans-97"/>
     <use transform="translate(1439.941406 0.015625)" xlink:href="#DejaVuSans-32"/>
     <use transform="translate(1471.728516 0.015625)" xlink:href="#DejaVuSans-114"/>
     <use transform="translate(1512.841797 0.015625)" xlink:href="#DejaVuSans-97"/>
     <use transform="translate(1574.121094 0.015625)" xlink:href="#DejaVuSans-110"/>
     <use transform="translate(1637.5 0.015625)" xlink:href="#DejaVuSans-103"/>
     <use transform="translate(1700.976562 0.015625)" xlink:href="#DejaVuSans-101"/>
     <use transform="translate(1762.5 0.015625)" xlink:href="#DejaVuSans-32"/>
     <use transform="translate(1794.287109 0.015625)" xlink:href="#DejaVuSans-111"/>
     <use transform="translate(1855.46875 0.015625)" xlink:href="#DejaVuSans-102"/>
     <use transform="translate(1890.673828 0.015625)" xlink:href="#DejaVuSans-32"/>
     <use transform="translate(1922.460938 0.015625)" xlink:href="#DejaVuSans-108"/>
     <use transform="translate(1950.244141 0.015625)" xlink:href="#DejaVuSans-105"/>
     <use transform="translate(1978.027344 0.015625)" xlink:href="#DejaVuSans-103"/>
     <use transform="translate(2041.503906 0.015625)" xlink:href="#DejaVuSans-97"/>
     <use transform="translate(2102.783203 0.015625)" xlink:href="#DejaVuSans-110"/>
     <use transform="translate(2166.162109 0.015625)" xlink:href="#DejaVuSans-100"/>
     <use transform="translate(2229.638672 0.015625)" xlink:href="#DejaVuSans-32"/>
     <use transform="translate(2261.425781 0.015625)" xlink:href="#DejaVuSans-75"/>
     <use transform="translate(2327.958984 -16.390625)scale(0.7)" xlink:href="#DejaVuSans-68"/>
     <use transform="translate(2384.594727 0.015625)" xlink:href="#DejaVuSans-115"/>
     <use transform="translate(2436.694336 0.015625)" xlink:href="#DejaVuSans-44"/>
     <use transform="translate(2468.481445 0.015625)" xlink:href="#DejaVuSans-32"/>
     <use transform="translate(2500.268555 0.015625)" xlink:href="#DejaVuSans-91"/>
     <use transform="translate(2539.282227 0.015625)" xlink:href="#DejaVuSans-76"/>
     <use transform="translate(2594.995117 0.015625)" xlink:href="#DejaVuSans-93"/>
     <use transform="translate(2634.008789 0.015625)" xlink:href="#DejaVuSans-61"/>
     <use transform="translate(2717.797852 0.015625)" xlink:href="#DejaVuSans-49"/>
     <use transform="translate(2781.420898 0.015625)" xlink:href="#DejaVuSans-48"/>
     <use transform="translate(2845.043945 0.015625)" xlink:href="#DejaVuSans-32"/>
     <use transform="translate(2876.831055 0.015625)" xlink:href="#DejaVuSans-110"/>
     <use transform="translate(2940.209961 0.015625)" xlink:href="#DejaVuSans-77"/>
     <use transform="translate(3026.489258 0.015625)" xlink:href="#DejaVuSans-44"/>
     <use transform="translate(3058.276367 0.015625)" xlink:href="#DejaVuSans-32"/>
     <use transform="translate(3090.063477 0.015625)" xlink:href="#DejaVuSans-91"/>
     <use transform="translate(3129.077148 0.015625)" xlink:href="#DejaVuSans-73"/>
     <use transform="translate(3158.569336 0.015625)" xlink:href="#DejaVuSans-93"/>
     <use transform="translate(3197.583008 0.015625)" xlink:href="#DejaVuSans-61"/>
     <use transform="translate(3281.37207 0.015625)" xlink:href="#DejaVuSans-49"/>
     <use transform="translate(3344.995117 0.015625)" xlink:href="#DejaVuSans-48"/>
     <use transform="translate(3408.618164 0.015625)" xlink:href="#DejaVuSans-32"/>
     <use transform="translate(3440.405273 0.015625)" xlink:href="#DejaVuSans-956"/>
     <use transform="translate(3504.02832 0.015625)" xlink:href="#DejaVuSans-77"/>
    </g>
    <!-- Target fraction ligand bound without inhibitor = 0.7 -->
    <defs>
     <path d="M -0.296875 72.90625 
L 61.375 72.90625 
L 61.375 64.59375 
L 35.5 64.59375 
L 35.5 0 
L 25.59375 0 
L 25.59375 64.59375 
L -0.296875 64.59375 
z
" id="DejaVuSans-84"/>
     <path d="M 4.203125 54.6875 
L 13.1875 54.6875 
L 24.421875 12.015625 
L 35.59375 54.6875 
L 46.1875 54.6875 
L 57.421875 12.015625 
L 68.609375 54.6875 
L 77.59375 54.6875 
L 63.28125 0 
L 52.6875 0 
L 40.921875 44.828125 
L 29.109375 0 
L 18.5 0 
z
" id="DejaVuSans-119"/>
     <path d="M 54.890625 33.015625 
L 54.890625 0 
L 45.90625 0 
L 45.90625 32.71875 
Q 45.90625 40.484375 42.875 44.328125 
Q 39.84375 48.1875 33.796875 48.1875 
Q 26.515625 48.1875 22.3125 43.546875 
Q 18.109375 38.921875 18.109375 30.90625 
L 18.109375 0 
L 9.078125 0 
L 9.078125 75.984375 
L 18.109375 75.984375 
L 18.109375 46.1875 
Q 21.34375 51.125 25.703125 53.5625 
Q 30.078125 56 35.796875 56 
Q 45.21875 56 50.046875 50.171875 
Q 54.890625 44.34375 54.890625 33.015625 
z
" id="DejaVuSans-104"/>
    </defs>
    <g transform="translate(140.88375 45.84)scale(0.12 -0.12)">
     <use xlink:href="#DejaVuSans-84"/>
     <use x="44.583984" xlink:href="#DejaVuSans-97"/>
     <use x="105.863281" xlink:href="#DejaVuSans-114"/>
     <use x="145.226562" xlink:href="#DejaVuSans-103"/>
     <use x="208.703125" xlink:href="#DejaVuSans-101"/>
     <use x="270.226562" xlink:href="#DejaVuSans-116"/>
     <use x="309.435547" xlink:href="#DejaVuSans-32"/>
     <use x="341.222656" xlink:href="#DejaVuSans-102"/>
     <use x="376.427734" xlink:href="#DejaVuSans-114"/>
     <use x="417.541016" xlink:href="#DejaVuSans-97"/>
     <use x="478.820312" xlink:href="#DejaVuSans-99"/>
     <use x="533.800781" xlink:href="#DejaVuSans-116"/>
     <use x="573.009766" xlink:href="#DejaVuSans-105"/>
     <use x="600.792969" xlink:href="#DejaVuSans-111"/>
     <use x="661.974609" xlink:href="#DejaVuSans-110"/>
     <use x="725.353516" xlink:href="#DejaVuSans-32"/>
     <use x="757.140625" xlink:href="#DejaVuSans-108"/>
     <use x="784.923828" xlink:href="#DejaVuSans-105"/>
     <use x="812.707031" xlink:href="#DejaVuSans-103"/>
     <use x="876.183594" xlink:href="#DejaVuSans-97"/>
     <use x="937.462891" xlink:href="#DejaVuSans-110"/>
     <use x="1000.841797" xlink:href="#DejaVuSans-100"/>
     <use x="1064.318359" xlink:href="#DejaVuSans-32"/>
     <use x="1096.105469" xlink:href="#DejaVuSans-98"/>
     <use x="1159.582031" xlink:href="#DejaVuSans-111"/>
     <use x="1220.763672" xlink:href="#DejaVuSans-117"/>
     <use x="1284.142578" xlink:href="#DejaVuSans-110"/>
     <use x="1347.521484" xlink:href="#DejaVuSans-100"/>
     <use x="1410.998047" xlink:href="#DejaVuSans-32"/>
     <use x="1442.785156" xlink:href="#DejaVuSans-119"/>
     <use x="1524.572266" xlink:href="#DejaVuSans-105"/>
     <use x="1552.355469" xlink:href="#DejaVuSans-116"/>
     <use x="1591.564453" xlink:href="#DejaVuSans-104"/>
     <use x="1654.943359" xlink:href="#DejaVuSans-111"/>
     <use x="1716.125" xlink:href="#DejaVuSans-117"/>
     <use x="1779.503906" xlink:href="#DejaVuSans-116"/>
     <use x="1818.712891" xlink:href="#DejaVuSans-32"/>
     <use x="1850.5" xlink:href="#DejaVuSans-105"/>
     <use x="1878.283203" xlink:href="#DejaVuSans-110"/>
     <use x="1941.662109" xlink:href="#DejaVuSans-104"/>
     <use x="2005.041016" xlink:href="#DejaVuSans-105"/>
     <use x="2032.824219" xlink:href="#DejaVuSans-98"/>
     <use x="2096.300781" xlink:href="#DejaVuSans-105"/>
     <use x="2124.083984" xlink:href="#DejaVuSans-116"/>
     <use x="2163.292969" xlink:href="#DejaVuSans-111"/>
     <use x="2224.474609" xlink:href="#DejaVuSans-114"/>
     <use x="2265.587891" xlink:href="#DejaVuSans-32"/>
     <use x="2297.375" xlink:href="#DejaVuSans-61"/>
     <use x="2381.164062" xlink:href="#DejaVuSans-32"/>
     <use x="2412.951172" xlink:href="#DejaVuSans-48"/>
     <use x="2476.574219" xlink:href="#DejaVuSans-46"/>
     <use x="2508.361328" xlink:href="#DejaVuSans-55"/>
    </g>
   </g>
   <g id="legend_1">
    <g id="patch_7">
     <path d="M 79 379.48 
L 178 379.48 
Q 180 379.48 180 377.48 
L 180 290.350312 
Q 180 288.350312 178 288.350312 
L 79 288.350312 
Q 77 288.350312 77 290.350312 
L 77 377.48 
Q 77 379.48 79 379.48 
z
" style="fill:#ffffff;opacity:0.8;stroke:#cccccc;stroke-linejoin:miter;"/>
    </g>
    <g id="line2d_25">
     <path d="M 81 296.44875 
L 101 296.44875 
" style="fill:none;stroke:#000000;stroke-linecap:square;"/>
    </g>
    <g id="line2d_26"/>
    <g id="text_22">
     <!-- K$_\mathrm{D}$PI=100 M -->
     <defs>
      <path d="M 19.671875 64.796875 
L 19.671875 37.40625 
L 32.078125 37.40625 
Q 38.96875 37.40625 42.71875 40.96875 
Q 46.484375 44.53125 46.484375 51.125 
Q 46.484375 57.671875 42.71875 61.234375 
Q 38.96875 64.796875 32.078125 64.796875 
z
M 9.8125 72.90625 
L 32.078125 72.90625 
Q 44.34375 72.90625 50.609375 67.359375 
Q 56.890625 61.8125 56.890625 51.125 
Q 56.890625 40.328125 50.609375 34.8125 
Q 44.34375 29.296875 32.078125 29.296875 
L 19.671875 29.296875 
L 19.671875 0 
L 9.8125 0 
z
" id="DejaVuSans-80"/>
      <path d="M 8.5 -20.796875 
L 8.5 54.6875 
L 17.484375 54.6875 
L 17.484375 20.703125 
Q 17.484375 13.625 20.84375 10 
Q 24.21875 6.390625 30.8125 6.390625 
Q 38.03125 6.390625 41.671875 10.484375 
Q 45.3125 14.59375 45.3125 22.796875 
L 45.3125 54.6875 
L 54.296875 54.6875 
L 54.296875 12.59375 
Q 54.296875 9.671875 55.140625 8.28125 
Q 56 6.890625 57.8125 6.890625 
Q 58.25 6.890625 59.03125 7.15625 
Q 59.8125 7.421875 61.1875 8.015625 
L 61.1875 0.78125 
Q 59.1875 -0.34375 57.390625 -0.875 
Q 55.609375 -1.421875 53.90625 -1.421875 
Q 50.53125 -1.421875 48.53125 0.484375 
Q 46.53125 2.390625 45.796875 6.296875 
Q 43.359375 2.4375 39.8125 0.5 
Q 36.28125 -1.421875 31.5 -1.421875 
Q 26.515625 -1.421875 23.015625 0.484375 
Q 19.53125 2.390625 17.484375 6.203125 
L 17.484375 -20.796875 
z
" id="DejaVuSans-181"/>
     </defs>
     <g transform="translate(109 299.94875)scale(0.1 -0.1)">
      <use transform="translate(0 0.78125)" xlink:href="#DejaVuSans-75"/>
      <use transform="translate(66.533203 -15.625)scale(0.7)" xlink:href="#DejaVuSans-68"/>
      <use transform="translate(123.168945 0.78125)" xlink:href="#DejaVuSans-80"/>
      <use transform="translate(183.47168 0.78125)" xlink:href="#DejaVuSans-73"/>
      <use transform="translate(212.963867 0.78125)" xlink:href="#DejaVuSans-61"/>
      <use transform="translate(296.75293 0.78125)" xlink:href="#DejaVuSans-49"/>
      <use transform="translate(360.375977 0.78125)" xlink:href="#DejaVuSans-48"/>
      <use transform="translate(423.999023 0.78125)" xlink:href="#DejaVuSans-48"/>
      <use transform="translate(487.62207 0.78125)" xlink:href="#DejaVuSans-32"/>
      <use transform="translate(519.40918 0.78125)" xlink:href="#DejaVuSans-181"/>
      <use transform="translate(583.032227 0.78125)" xlink:href="#DejaVuSans-77"/>
     </g>
    </g>
    <g id="line2d_27">
     <path d="M 81 311.147187 
L 101 311.147187 
" style="fill:none;stroke:#000000;stroke-linecap:square;"/>
    </g>
    <g id="line2d_28">
     <g>
      <use style="stroke:#000000;" x="91" xlink:href="#mc0a762f7cc" y="311.147187"/>
     </g>
    </g>
    <g id="text_23">
     <!-- K$_\mathrm{D}$PI=10 M -->
     <g transform="translate(109 314.647187)scale(0.1 -0.1)">
      <use transform="translate(0 0.78125)" xlink:href="#DejaVuSans-75"/>
      <use transform="translate(66.533203 -15.625)scale(0.7)" xlink:href="#DejaVuSans-68"/>
      <use transform="translate(123.168945 0.78125)" xlink:href="#DejaVuSans-80"/>
      <use transform="translate(183.47168 0.78125)" xlink:href="#DejaVuSans-73"/>
      <use transform="translate(212.963867 0.78125)" xlink:href="#DejaVuSans-61"/>
      <use transform="translate(296.75293 0.78125)" xlink:href="#DejaVuSans-49"/>
      <use transform="translate(360.375977 0.78125)" xlink:href="#DejaVuSans-48"/>
      <use transform="translate(423.999023 0.78125)" xlink:href="#DejaVuSans-32"/>
      <use transform="translate(455.786133 0.78125)" xlink:href="#DejaVuSans-181"/>
      <use transform="translate(519.40918 0.78125)" xlink:href="#DejaVuSans-77"/>
     </g>
    </g>
    <g id="line2d_29">
     <path d="M 81 325.845625 
L 101 325.845625 
" style="fill:none;stroke:#000000;stroke-linecap:square;"/>
    </g>
    <g id="line2d_30">
     <g>
      <use style="stroke:#000000;" x="91" xlink:href="#mfbe85b97f3" y="325.845625"/>
     </g>
    </g>
    <g id="text_24">
     <!-- K$_\mathrm{D}$PI=1 M -->
     <g transform="translate(109 329.345625)scale(0.1 -0.1)">
      <use transform="translate(0 0.09375)" xlink:href="#DejaVuSans-75"/>
      <use transform="translate(66.533203 -16.3125)scale(0.7)" xlink:href="#DejaVuSans-68"/>
      <use transform="translate(123.168945 0.09375)" xlink:href="#DejaVuSans-80"/>
      <use transform="translate(183.47168 0.09375)" xlink:href="#DejaVuSans-73"/>
      <use transform="translate(212.963867 0.09375)" xlink:href="#DejaVuSans-61"/>
      <use transform="translate(296.75293 0.09375)" xlink:href="#DejaVuSans-49"/>
      <use transform="translate(360.375977 0.09375)" xlink:href="#DejaVuSans-32"/>
      <use transform="translate(392.163086 0.09375)" xlink:href="#DejaVuSans-181"/>
      <use transform="translate(455.786133 0.09375)" xlink:href="#DejaVuSans-77"/>
     </g>
    </g>
    <g id="line2d_31">
     <path d="M 81 340.544062 
L 101 340.544062 
" style="fill:none;stroke:#000000;stroke-linecap:square;"/>
    </g>
    <g id="line2d_32">
     <g>
      <use style="stroke:#000000;stroke-linejoin:miter;" x="91" xlink:href="#m7498b6de38" y="340.544062"/>
     </g>
    </g>
    <g id="text_25">
     <!-- K$_\mathrm{D}$PI=100 nM -->
     <g transform="translate(109 344.044062)scale(0.1 -0.1)">
      <use transform="translate(0 0.78125)" xlink:href="#DejaVuSans-75"/>
      <use transform="translate(66.533203 -15.625)scale(0.7)" xlink:href="#DejaVuSans-68"/>
      <use transform="translate(123.168945 0.78125)" xlink:href="#DejaVuSans-80"/>
      <use transform="translate(183.47168 0.78125)" xlink:href="#DejaVuSans-73"/>
      <use transform="translate(212.963867 0.78125)" xlink:href="#DejaVuSans-61"/>
      <use transform="translate(296.75293 0.78125)" xlink:href="#DejaVuSans-49"/>
      <use transform="translate(360.375977 0.78125)" xlink:href="#DejaVuSans-48"/>
      <use transform="translate(423.999023 0.78125)" xlink:href="#DejaVuSans-48"/>
      <use transform="translate(487.62207 0.78125)" xlink:href="#DejaVuSans-32"/>
      <use transform="translate(519.40918 0.78125)" xlink:href="#DejaVuSans-110"/>
      <use transform="translate(582.788086 0.78125)" xlink:href="#DejaVuSans-77"/>
     </g>
    </g>
    <g id="line2d_33">
     <path d="M 81 355.222188 
L 101 355.222188 
" style="fill:none;stroke:#000000;stroke-linecap:square;"/>
    </g>
    <g id="line2d_34">
     <g>
      <use style="stroke:#000000;stroke-linejoin:miter;" x="91" xlink:href="#ma54c1b38d2" y="355.222188"/>
     </g>
    </g>
    <g id="text_26">
     <!-- K$_\mathrm{D}$PI=10 nM -->
     <g transform="translate(109 358.722188)scale(0.1 -0.1)">
      <use transform="translate(0 0.78125)" xlink:href="#DejaVuSans-75"/>
      <use transform="translate(66.533203 -15.625)scale(0.7)" xlink:href="#DejaVuSans-68"/>
      <use transform="translate(123.168945 0.78125)" xlink:href="#DejaVuSans-80"/>
      <use transform="translate(183.47168 0.78125)" xlink:href="#DejaVuSans-73"/>
      <use transform="translate(212.963867 0.78125)" xlink:href="#DejaVuSans-61"/>
      <use transform="translate(296.75293 0.78125)" xlink:href="#DejaVuSans-49"/>
      <use transform="translate(360.375977 0.78125)" xlink:href="#DejaVuSans-48"/>
      <use transform="translate(423.999023 0.78125)" xlink:href="#DejaVuSans-32"/>
      <use transform="translate(455.786133 0.78125)" xlink:href="#DejaVuSans-110"/>
      <use transform="translate(519.165039 0.78125)" xlink:href="#DejaVuSans-77"/>
     </g>
    </g>
    <g id="line2d_35">
     <path d="M 81 369.900312 
L 101 369.900312 
" style="fill:none;stroke:#000000;stroke-linecap:square;"/>
    </g>
    <g id="line2d_36">
     <g>
      <use style="stroke:#000000;stroke-linejoin:miter;" x="91" xlink:href="#mdafa51b0a4" y="369.900312"/>
     </g>
    </g>
    <g id="text_27">
     <!-- K$_\mathrm{D}$PI=1 nM -->
     <g transform="translate(109 373.400312)scale(0.1 -0.1)">
      <use transform="translate(0 0.09375)" xlink:href="#DejaVuSans-75"/>
      <use transform="translate(66.533203 -16.3125)scale(0.7)" xlink:href="#DejaVuSans-68"/>
      <use transform="translate(123.168945 0.09375)" xlink:href="#DejaVuSans-80"/>
      <use transform="translate(183.47168 0.09375)" xlink:href="#DejaVuSans-73"/>
      <use transform="translate(212.963867 0.09375)" xlink:href="#DejaVuSans-61"/>
      <use transform="translate(296.75293 0.09375)" xlink:href="#DejaVuSans-49"/>
      <use transform="translate(360.375977 0.09375)" xlink:href="#DejaVuSans-32"/>
      <use transform="translate(392.163086 0.09375)" xlink:href="#DejaVuSans-110"/>
      <use transform="translate(455.541992 0.09375)" xlink:href="#DejaVuSans-77"/>
     </g>
    </g>
   </g>
  </g>
 </g>
 <defs>
  <clipPath id="pb2d2658a6f">
   <rect height="332.64" width="446.4" x="72" y="51.84"/>
  </clipPath>
 </defs>
</svg>
